<?xml version="1.0" encoding="iso-8859-1"?>
<!-- Generator: Adobe Illustrator 21.1.0, SVG Export Plug-In . SVG Version: 6.00 Build 0)  -->
<svg version="1.1" id="Layer_1" xmlns="http://www.w3.org/2000/svg" xmlns:xlink="http://www.w3.org/1999/xlink" x="0px" y="0px"
	 viewBox="-49 141 512 512" style="enable-background:new -49 141 512 512;" xml:space="preserve">
<path style="fill:#E2E5E7;" d="M79,141c-17.6,0-32,14.4-32,32v448c0,17.6,14.4,32,32,32h320c17.6,0,32-14.4,32-32V269L303,141H79z"
	/>
<path style="fill:#B0B7BD;" d="M335,269h96L303,141v96C303,254.6,317.4,269,335,269z"/>
<polygon style="fill:#CAD1D8;" points="431,365 335,269 431,269 "/>
<path style="fill:#50BEE8;" d="M367,557c0,8.8-7.2,16-16,16H-1c-8.8,0-16-7.2-16-16V397c0-8.8,7.2-16,16-16h352c8.8,0,16,7.2,16,16
	V557z"/>
<g>
	<path style="fill:#FFFFFF;" d="M43.576,525c-4.224,0-8.832-2.32-8.832-7.936v-72.656c0-4.608,4.608-7.936,8.832-7.936h29.296
		c58.464,0,57.168,88.528,1.136,88.528H43.576z M51.64,452.072v57.312h21.232c34.544,0,36.064-57.312,0-57.312H51.64z"/>
	<path style="fill:#FFFFFF;" d="M179,526.28c-23.664,1.024-48.24-14.72-48.24-46.064c0-31.472,24.56-46.944,48.24-46.944
		c22.384,1.136,45.792,16.624,45.792,46.944C224.792,510.552,201.384,526.28,179,526.28z M177.592,449.912
		c-14.336,0-29.936,10.112-29.936,30.32c0,20.096,15.616,30.336,29.936,30.336c14.72,0,30.448-10.24,30.448-30.336
		C208.04,460.008,192.312,449.912,177.592,449.912z"/>
	<path style="fill:#FFFFFF;" d="M239.848,480.088c0-24.688,15.488-45.92,44.912-45.92c11.136,0,19.968,3.328,29.296,11.392
		c3.456,3.184,3.84,8.816,0.384,12.4c-3.456,3.056-8.704,2.688-11.776-0.384c-5.232-5.504-10.608-7.024-17.904-7.024
		c-19.696,0-29.152,13.952-29.152,29.552c0,15.872,9.328,30.448,29.152,30.448c7.296,0,14.08-2.96,19.968-8.192
		c3.952-3.072,9.456-1.552,11.76,1.536c2.048,2.816,3.056,7.552-1.408,12.016c-8.96,8.336-19.696,10-30.336,10
		C253.8,525.912,239.848,504.776,239.848,480.088z"/>
</g>
<path style="fill:#CAD1D8;" d="M351,573H47v16h304c8.8,0,16-7.2,16-16v-16C367,565.8,359.8,573,351,573z"/>
</svg>
