<svg xmlns="http://www.w3.org/2000/svg" viewBox="0 0 516 516" fill='#ba2d20'>
    <g id="Слой_2" data-name="Слой 2">
        <g id="Layer_1" data-name="Layer 1">
            <path class="cls-1" stroke='#ba2d20' stroke-width='4px' stroke-miterlimit='10' d="M344,514H237.55l.85-169h-71V238.57h71V194.22c0-59.44,46.13-110,105.56-115.32h98.47V185.34H353.72c-5.32,0-8.87,3.55-8.87,8.87v44.35h88.71V345H344.85Zm-86-17.07h68.27V326.27H411.6V258H326.27V198.27a25.14,25.14,0,0,1,25.6-25.6h68.27V104.4h-76.8C295.55,108.67,258,149.63,258,198.27V258H189.73v68.27H258Z" />
            <path class="cls-1" stroke='#ba2d20' stroke-width='4px' stroke-miterlimit='10' d="M471.33,514H44.67A42.25,42.25,0,0,1,2,471.33V44.67A42.25,42.25,0,0,1,44.67,2H471.33A42.25,42.25,0,0,1,514,44.67V471.33A42.25,42.25,0,0,1,471.33,514ZM49.52,24.5a24.57,24.57,0,0,0-25,25v417a24.57,24.57,0,0,0,25,25h417a24.57,24.57,0,0,0,25-25v-417a24.57,24.57,0,0,0-25-25Z" />
        </g>
    </g>
</svg>