<svg xmlns="http://www.w3.org/2000/svg" viewBox="0 0 512 512" fill='#ba2d20'>
    <g id="Слой_2" data-name="Слой 2">
        <g id="Capa_1" data-name="Capa 1">
            <path d="M363.27,512H148.73C66.72,512,0,445.28,0,363.27V148.73C0,66.72,66.72,0,148.73,0H363.27C445.28,0,512,66.72,512,148.73V363.27C512,445.28,445.28,512,363.27,512Zm-219-481A113.39,113.39,0,0,0,31,144.26V367.74A113.39,113.39,0,0,0,144.26,481H367.74A113.39,113.39,0,0,0,481,367.74V144.26A113.39,113.39,0,0,0,367.74,31Z" />
            <path d="M256,394c-76.09,0-138-61.91-138-138s61.91-138,138-138,138,61.91,138,138S332.09,394,256,394Zm0-246A108,108,0,1,0,364,256,108.12,108.12,0,0,0,256,148Z" />
            <circle cx="396" cy="116" r="20" />
        </g>
    </g>
</svg>