<svg version="1.1" id="Слой_1" xmlns="http://www.w3.org/2000/svg" xmlns:xlink="http://www.w3.org/1999/xlink" x="0px" y="0px"
	 viewBox="0 0 512 512" style="enable-background:new 0 0 512 512;" xml:space="preserve" fill='#ba2d20'>
<path d="M256,148c-59.6,0-108,48.4-108,108c0,59.6,48.4,108,108,108c59.6,0,108-48.4,108-108C363.9,196.4,315.6,148.1,256,148z"/>
<g>
	<path  stroke='#ffffff' stroke-width='10px' stroke-miterlimit='10' class="st0" d="M144.3,31c-2,0-3.9,0.1-5.8,0.2C140.4,31.1,142.3,31,144.3,31L144.3,31z"/>
	<path  stroke='#ffffff' stroke-width='10px' stroke-miterlimit='10' class="st0" d="M118.7,33.9c6.4-1.5,13-2.4,19.7-2.8C131.7,31.5,125.1,32.4,118.7,33.9z"/>
	<path  stroke='#ffffff' stroke-width='10px' stroke-miterlimit='10' class="st0" d="M92.7,43.4c2.4-1.3,4.9-2.4,7.5-3.5C97.7,41,95.2,42.2,92.7,43.4z"/>
	<circle  stroke='#ffffff' stroke-width='10px' stroke-miterlimit='10' class="st0" cx="396" cy="116" r="20"/>
	<path  stroke='#ffffff' stroke-width='10px' stroke-miterlimit='10' class="st0" d="M256,118c-76.1,0-138,61.9-138,138s61.9,138,138,138s138-61.9,138-138S332.1,118,256,118z"/>
	<path  stroke='#ffffff' stroke-width='10px' stroke-miterlimit='10' class="st0" d="M87.9,46c1.6-0.9,3.2-1.8,4.8-2.6C91.1,44.3,89.5,45.1,87.9,46z"/>
	<path  stroke='#ffffff' stroke-width='10px' stroke-miterlimit='10' class="st0" d="M66.2,62.3c-1.3,1.2-2.6,2.5-3.8,3.8C63.6,64.8,64.8,63.6,66.2,62.3z"/>
	<path  stroke='#ffffff' stroke-width='10px' stroke-miterlimit='10' class="st0" d="M100.2,39.9c1.7-0.7,3.4-1.4,5.1-2C103.6,38.5,101.9,39.2,100.2,39.9z"/>
	<path  stroke='#ffffff' stroke-width='10px' stroke-miterlimit='10' class="st0" d="M72.3,56.9c1.4-1.2,2.8-2.3,4.3-3.4C75.1,54.6,73.7,55.7,72.3,56.9z"/>
	<path  stroke='#ffffff' stroke-width='10px' stroke-miterlimit='10' class="st0" d="M78.7,51.9c1.5-1.1,3-2.1,4.5-3.1C81.7,49.9,80.2,50.9,78.7,51.9z"/>
	<path  stroke='#ffffff' stroke-width='10px' stroke-miterlimit='10' d="M363.3,0H148.7C66.7,0,0,66.7,0,148.7v214.5C0,445.3,66.7,512,148.7,512h214.5c82,0,148.7-66.7,148.7-148.7V148.7
		C512,66.7,445.3,0,363.3,0z M256,394c-76.1,0-138-61.9-138-138s61.9-138,138-138s138,61.9,138,138S332.1,394,256,394z M376,116
		c0-11,9-20,20-20c11,0,20,9,20,20s-9,20-20,20C385,136,376,127,376,116z"/>
</g>
</svg>
