<svg xmlns="http://www.w3.org/2000/svg" viewBox="0 0 519 510.47 " fill='#ba2d20'>
    <g id="Слой_2" data-name="Слой 2">
        <g id="Layer_1" data-name="Layer 1">
            <path  stroke='#ba2d20' stroke-width='7px' stroke-miterlimit='10' class="cls-1" d="M73.47,140H71.77c-17.07.85-35-6.83-47.79-19.63A68.42,68.42,0,0,1,3.5,71.77c0-17.92,6.83-35,20.48-48.64C36.78,10.33,53.85,3.5,72.62,3.5h0A64.58,64.58,0,0,1,120.41,24c12.8,12.8,20.48,29.87,19.63,47.79a68.42,68.42,0,0,1-20.48,48.64C106.75,133.21,90.54,140,73.47,140ZM71.77,123c13.65.85,26.45-5.12,35.84-14.51,10.24-9.39,15.36-23,15.36-36.69a51,51,0,0,0-15.36-36.69,49.79,49.79,0,0,0-35-14.51h0c-14.51,0-27.31,5.12-36.69,14.51A51,51,0,0,0,20.57,71.77c0,13.65,5.12,27.31,15.36,36.69C45.31,117.85,59,123,71.77,123Z" />
            <path  stroke='#ba2d20' stroke-width='7px' stroke-miterlimit='10' class="cls-1" d="M105.9,507H37.63C24,507,12,495,12,481.37V182.7c0-14.51,11.09-25.6,24.75-25.6H105.9c13.65,0,25.6,11.95,25.6,25.6V482.22C131.5,495,119.55,507,105.9,507ZM36.78,174.17c-4.27,0-7.68,4.27-7.68,8.53V481.37c0,4.27,4.27,8.53,8.53,8.53H105.9c4.27,0,8.53-3.41,8.53-7.68V182.7c0-4.27-4.27-8.53-8.53-8.53Z" />
            <path  stroke='#ba2d20' stroke-width='7px' stroke-miterlimit='10' class="cls-1" d="M498.43,507H413.1c-8.53,0-17.07-8.53-17.07-17.07V306.43c0-15.36-3.41-27.31-11.95-35a50.3,50.3,0,0,0-35.84-14.51c-26.45,0-46.93,22.19-46.93,50.35V491.61c0,9.39-9.39,15.36-17.07,15.36H190.38c-7.68,0-17.07-6-17.07-15.36V173.31c0-9.39,9.39-16.21,17.07-16.21h85.33c8.53,0,17.07,8.53,17.07,17.07v11.95c20.48-23,52.05-37.55,85.33-37.55H396c67.41,0,119.47,52.91,119.47,121.17V489.9C515.5,498.43,507,507,498.43,507ZM414,489.9h83.63l.85-.85V269.74c0-58-44.37-104.11-101.55-104.11H379c-31.57,0-61.44,15.36-78.51,39.25l-.85.85-23,23V175l-.85-.85H191.23V489.9H285.1V307.29c0-37.55,28.16-66.56,64-67.41a67.12,67.12,0,0,1,47.79,19.63C408,270.59,413.1,286,413.1,306.43L414,489.9Z" />
        </g>
    </g>
</svg>