<?xml version="1.0" encoding="utf-8"?>
<!-- Generator: Adobe Illustrator 21.0.0, SVG Export Plug-In . SVG Version: 6.00 Build 0)  -->
<svg version="1.1" id="Layer_1" xmlns="http://www.w3.org/2000/svg" xmlns:xlink="http://www.w3.org/1999/xlink" x="0px" y="0px"
	 viewBox="0 0 512.1 73.6" style="enable-background:new 0 0 512.1 73.6;" xml:space="preserve">
<style type="text/css">
	.st0{fill:#BA2D20;}
	.st1{fill:#433F3D;}
	.st2{fill:#646260;}
</style>
<g>
	<g>
		<g>
			<path class="st0" d="M57.6,26.5c0-0.2,0-0.4-0.1-0.5c-0.1-0.8-0.2-1.7-0.4-2.5c0,0,0-0.1,0-0.1c-0.2-0.9-0.4-1.8-0.7-2.7
				c0,0,0,0,0-0.1c-1.1-3.6-2.9-7-5.3-9.9l-0.1-0.1c0,0,0,0,0,0c-0.3-0.3-0.5-0.6-0.9-1c-0.3-0.3-0.6-0.6-0.9-0.9
				c0,0-0.1-0.1-0.1-0.1c-2.8-2.8-6.1-5-9.9-6.5l-0.4-0.2l0,0.1c-2.1-0.8-4.3-1.3-6.5-1.6C31.1,0.1,29.8,0,28.6,0c0,0,0,0,0,0
				c-0.8,0-1.7,0.1-2.5,0.1c-0.2,0-0.5,0-0.7,0.1c-0.8,0.1-1.6,0.2-2.4,0.4c-0.3,0-0.5,0.1-0.8,0.2c-0.7,0.2-1.4,0.3-2.1,0.5
				c-0.1,0-0.3,0.1-0.4,0.1c-0.9,0.3-1.7,0.6-2.6,1c-0.2,0.1-0.4,0.2-0.5,0.2l2.7,6.3l0.2-0.1c0.4-0.2,0.9-0.3,1.3-0.5
				c0.3-0.1,0.6-0.2,0.9-0.3c0.7-0.2,1.4-0.4,2.1-0.6c0.1,0,0.3-0.1,0.4-0.1c0.2,0,0.5-0.1,0.7-0.1c2.5-0.4,5-0.4,7.5,0
				c1.5,0.3,3,0.7,4.4,1.2l0,0c0.3,0.1,0.5,0.2,0.8,0.4C38,9,38.4,9.2,38.8,9.4c0.4,0.2,0.8,0.5,1.2,0.7c0.2,0.1,0.5,0.3,0.7,0.4
				c0.3,0.2,0.7,0.5,1,0.7c0.3,0.2,0.6,0.4,0.8,0.6c0.3,0.2,0.5,0.4,0.7,0.6c0.3,0.3,0.7,0.6,1,0.9c0.4,0.4,0.8,0.9,1.2,1.3
				c0.1,0.1,0.1,0.2,0.2,0.2c0.4,0.5,0.8,1,1.2,1.6c0,0,0,0,0,0.1c0.4,0.6,0.8,1.2,1.1,1.8l0,0c0.3,0.6,0.7,1.2,0.9,1.9
				c0,0,0,0,0,0.1c1.1,2.5,1.7,5.2,1.8,8c0,0.3,0,0.6,0,0.9c0,0.7,0,1.4-0.1,2.1c0,0.1,0,0.1,0,0.2c0,0.3-0.1,0.6-0.1,0.9l0,0.3
				c0,0,0,0.1,0,0.1c0,0.1,0,0.3-0.1,0.4l-0.1,0.3l-0.1,0.4c0,0.2-0.1,0.5-0.2,0.7c0,0.2-0.1,0.3-0.1,0.5L50,35.3
				c0,0.1,0,0.1-0.1,0.2c-0.1,0.3-0.2,0.5-0.2,0.8c0,0,0,0,0,0c0,0.1-0.1,0.2-0.1,0.2c-0.1,0.4-0.3,0.7-0.4,1.1
				c-0.2,0.6-0.5,1.2-0.8,1.8c0,0.1-0.1,0.1-0.1,0.2c-0.3,0.5-0.6,1.1-0.9,1.6c-0.1,0.2-0.2,0.3-0.3,0.5c-0.1,0.1-0.2,0.3-0.3,0.4
				l-7.5-7.5l-2,2l-0.6,0.6c-2.1,2.1-4.9,3.3-8,3.3c-0.8,0-1.7-0.1-2.5-0.3c0,0,0,0,0,0c-0.4-0.1-0.7-0.2-1.1-0.3
				c-0.1,0-0.1,0-0.2-0.1c-0.3-0.1-0.6-0.2-0.9-0.4c0,0-0.1,0-0.1-0.1c-1.1-0.5-2.2-1.3-3.1-2.2c-0.9-0.9-1.7-2-2.2-3.1
				c-0.2-0.3-0.3-0.7-0.4-1.1h1.5h10.6h9.1h7.5v-3.8c0-1.1-0.1-2.2-0.3-3.3l0-0.4h0c-0.5-2.2-1.4-4.2-2.6-6.1
				c-1.6-2.4-3.7-4.5-6.2-5.9c-0.2-0.1-0.4-0.2-0.7-0.4c-0.4-0.2-0.9-0.4-1.3-0.6c-0.5-0.2-1-0.4-1.6-0.6c-0.2-0.1-0.3-0.1-0.5-0.1
				c-2.8-0.8-5.8-0.8-8.7-0.2c-2.2,0.4-4.3,1.2-6.1,2.5l-3-3l-4.9-4.9l-0.2-0.2L8,8.5c0,0,0,0,0,0C7.9,8.7,7.8,8.8,7.7,8.9
				C7.4,9.2,7,9.5,6.7,9.9c-0.2,0.2-0.4,0.4-0.6,0.7c-0.1,0.2-0.3,0.3-0.4,0.5c-0.1,0.1-0.1,0.2-0.2,0.2c-0.2,0.3-0.4,0.6-0.6,0.8
				c-0.2,0.3-0.4,0.6-0.6,0.8c-0.1,0.2-0.3,0.4-0.4,0.6c-0.2,0.4-0.5,0.7-0.7,1.1C3.2,14.9,3.1,15,3,15.2c-0.2,0.4-0.5,0.9-0.7,1.3
				c-0.1,0.1-0.1,0.3-0.2,0.4c-0.2,0.5-0.4,0.9-0.6,1.4c0,0.1-0.1,0.1-0.1,0.2c-0.1,0.3-0.2,0.6-0.3,0.9C1.1,19.5,1,19.7,1,19.9
				c0,0,0,0,0,0.1c-0.1,0.4-0.3,0.8-0.4,1.3l-0.1,0.2l0,0c0,0.2-0.1,0.3-0.1,0.5c0,0.2-0.1,0.3-0.1,0.5l-0.1,0.4l-0.2,0.9
				c0,0,0,0.1,0,0.1c0,0.2-0.1,0.4-0.1,0.6L-0.3,25c0,0,0,0.1,0,0.1c0,0.2-0.1,0.4-0.1,0.6c0,0.1,0,0.2,0,0.4l0,0.3
				c0,0.2,0,0.5-0.1,0.7c0,0.1,0,0.3,0,0.5c0,0.1,0,0.1,0,0.2c0,0.4,0,0.9,0,1.4c0,0,0,0,0,0c0,0.9,0,1.7,0.1,2.6
				c0,0.2,0,0.4,0.1,0.6c0.1,0.8,0.2,1.7,0.4,2.5c0,0,0,0,0,0c0.2,0.9,0.4,1.8,0.7,2.7c0,0.1,0,0.1,0.1,0.2c0.3,1,0.7,2.1,1.1,3.1
				c0.2,0.4,0.4,0.8,0.6,1.4c0.2,0.4,0.4,0.7,0.6,1.2l0.1,0.2c0.2,0.3,0.4,0.6,0.5,0.9l0.7,1.1c0.1,0.2,0.3,0.4,0.4,0.6l0.3,0.4
				c0.2,0.3,0.4,0.5,0.7,0.8l0.2,0.2C6.3,48,6.6,48.3,7,48.8c0.3,0.3,0.6,0.6,0.9,0.9c0,0,0.1,0.1,0.1,0.1c2.6,2.6,5.7,4.6,9,6.1
				c0.2,0.1,0.3,0.2,0.5,0.2c0.1,0,0.2,0.1,0.4,0.2l0.4,0.2l0,0c2.1,0.8,4.3,1.3,6.5,1.6c1.2,0.2,2.4,0.3,3.7,0.3c0,0,0.1,0,0.1,0
				c0.1,0,0.2,0,0.3,0c0.8,0,1.5,0,2.2-0.1c0.2,0,0.4,0,0.7-0.1c0,0,0.1,0,0.1,0l0.4,0v0c0.6-0.1,1.2-0.2,1.9-0.3
				c0.3-0.1,0.6-0.1,0.9-0.2c0.6-0.1,1.3-0.3,1.9-0.5c0.2-0.1,0.4-0.1,0.7-0.2c0.8-0.3,1.7-0.6,2.5-0.9c0,0,0,0,0.1,0l0.4-0.2l0,0
				l-2.7-6.3l-0.4,0.2c-0.7,0.3-1.4,0.5-2.1,0.8c-0.1,0-0.2,0.1-0.3,0.1c-0.5,0.2-1,0.3-1.5,0.4c-0.3,0.1-0.5,0.1-0.8,0.2
				c-0.2,0-0.3,0-0.5,0.1c-2.5,0.4-5,0.4-7.5,0c-1.5-0.3-3-0.7-4.4-1.2l0,0c-0.3-0.1-0.5-0.2-0.8-0.3c-0.4-0.2-0.9-0.4-1.3-0.6
				c-0.3-0.2-0.7-0.4-1-0.6c-0.3-0.2-0.6-0.3-0.9-0.5c-0.3-0.2-0.6-0.4-0.8-0.6c-0.3-0.2-0.7-0.5-1-0.7c-0.2-0.2-0.4-0.4-0.6-0.6
				c-0.4-0.3-0.7-0.6-1-0.9c-0.4-0.4-0.8-0.9-1.2-1.3c-0.1-0.1-0.1-0.1-0.2-0.2c-0.4-0.5-0.8-1-1.2-1.6l-0.1-0.1
				c-0.8-1.2-1.5-2.4-2.1-3.8c-1.2-2.8-1.8-5.8-1.8-8.8c0,0,0-0.1,0-0.1c0-0.5,0-0.9,0.1-1.4c0-0.1,0-0.3,0-0.4
				c0-0.4,0.1-0.9,0.1-1.3c0-0.2,0.1-0.4,0.1-0.5c0.1-0.4,0.1-0.7,0.2-1c0-0.2,0.1-0.4,0.1-0.6c0.1-0.3,0.1-0.5,0.2-0.8
				c0.2-0.7,0.4-1.4,0.7-2c0.3-0.7,0.6-1.3,0.9-2c0-0.1,0.1-0.2,0.1-0.2c0.3-0.5,0.6-1,0.9-1.5c0.1-0.2,0.2-0.4,0.4-0.5
				c0.1-0.1,0.2-0.2,0.3-0.4l7.5,7.5l2-2l0.6-0.6c2.1-2.1,4.9-3.3,7.9-3.3c1.7,0,3.3,0.4,4.8,1.1c0,0,0,0,0.1,0
				c1.1,0.5,2.2,1.3,3.1,2.2c0.9,0.9,1.7,2,2.2,3.1c0.2,0.3,0.3,0.7,0.4,1.1h-1.5H27h-9.1h-7.5v3.8c0,1.1,0.1,2.2,0.3,3.4
				c0.4,2.3,1.4,4.5,2.7,6.5c1.6,2.4,3.7,4.4,6.2,5.9c0.2,0.1,0.3,0.2,0.5,0.3c0.5,0.2,0.9,0.5,1.4,0.7c0.5,0.2,1,0.4,1.4,0.6
				c0.2,0.1,0.4,0.1,0.5,0.2c2.9,0.8,5.9,0.9,8.9,0.3c2.2-0.4,4.3-1.2,6.1-2.4l3,3l4.9,4.9l0.2,0.2l2.7-2.7c0,0,0.1-0.1,0.1-0.1
				c0.1-0.1,0.2-0.2,0.3-0.4c0.3-0.3,0.6-0.6,0.9-0.9c0.1-0.2,0.3-0.3,0.4-0.5c0.3-0.3,0.6-0.7,0.8-1c0.2-0.3,0.5-0.6,0.7-1
				c0.2-0.2,0.3-0.5,0.5-0.7c0.1-0.2,0.3-0.4,0.4-0.6c0.2-0.4,0.4-0.7,0.6-1.1c0.1-0.1,0.1-0.3,0.2-0.4c0.2-0.4,0.5-0.9,0.7-1.3
				c0.1-0.1,0.1-0.3,0.2-0.4c0.2-0.5,0.4-0.9,0.6-1.4c0.2-0.4,0.3-0.9,0.5-1.3c0-0.1,0.1-0.2,0.1-0.2c0-0.2,0.1-0.3,0.2-0.5
				c0.1-0.4,0.2-0.7,0.3-1.1c0.1-0.2,0.1-0.4,0.2-0.7c0.1-0.4,0.2-0.7,0.3-1.1c0-0.1,0.1-0.3,0.1-0.4c0-0.1,0-0.2,0-0.3
				c0.1-0.4,0.1-0.8,0.2-1.3c0-0.2,0.1-0.4,0.1-0.6c0.1-0.5,0.1-0.9,0.1-1.3c0-0.1,0-0.3,0-0.4c0-0.5,0-1.1,0-1.6
				C57.8,28.2,57.7,27.4,57.6,26.5z"/>
		</g>
		<path class="st1" d="M200.5,14.5h-8.8V7.2H221l-2.2,7.3h-9.6v31.2h-8.7V14.5z"/>
		<path class="st1" d="M225,35.9l-2.7,9.9h-9L225,7.2h11.4l12,38.5H239l-3-9.9H225z M234.8,29.3l-2.4-8.2c-0.7-2.3-1.4-5.1-1.9-7.4
			h-0.1c-0.6,2.3-1.1,5.2-1.8,7.4l-2.3,8.2H234.8z"/>
		<path class="st1" d="M162.9,7.2v16.9c0,11.4-2.4,14.9-7.2,19.8l1,7.6c3-0.8,7-4.2,8.5-6.2c4.2-5.3,6.3-12,6.3-21.9v-9.1h8.7v31.4
			h8.7V7.2H162.9z"/>
		<path class="st1" d="M130.6,7.2h-9.2l-4.2,13.7c-0.9,3.3-1.6,5.9-2.1,7.5H115c-0.9-2.3-1.7-4.7-2.7-7.4l-5.6-13.9h-9.8l13,26.7
			c0.3,0.6,0.5,1.1,0.2,1.8l0,0c-1.2,3.3-3.1,5.5-5.7,8.2l1,7.6c3-0.8,6.9-4.3,8.5-6.2c4.2-5.3,7.7-14.5,9.5-19.2L130.6,7.2z"/>
		<path class="st1" d="M138.6,6.6c-1.5,0-2.9,0.1-4.3,0.4c-0.3,0.9-3,7.8-3,7.8c1.8-0.6,4.1-1.1,6.6-1.1c6.4,0,10,4.1,10.6,9.2
			h-16.5v6.8h16.5c-0.6,5.6-4.8,9.6-11.4,9.6c-2.7,0-5.7-0.6-7.7-1.4l-1.5,6.7c2,0.9,5.9,1.8,9.9,1.8c11.3,0,20.1-6.9,20.1-19.8
			C157.8,15.9,152,6.6,138.6,6.6z"/>
		<path class="st1" d="M94.7,10C92.2,8,88.3,6.9,83,6.9c-5.3,0-11.8,0-11.8,0v6.6h12l0,0c0.1,0,0.1,0,0.2,0c4.4,0,6.9,2.1,6.9,5.7
			c0,3.9-2.9,6.2-7.5,6.2c-1.3,0-2.2-0.1-2.9-0.2v-8.9h-8.6v29.4h8.6V31.9c0.8,0.2,1.8,0.2,3,0.2c5.1,0,9.5-1.3,12.5-4.1
			c2.3-2.1,3.5-5.4,3.5-9.1C98.8,15.2,97.2,12,94.7,10z"/>
	</g>
	<g>
		<path class="st2" d="M78.6,68.7V56.4l-6.2,12.3h-1.9V53.3h1.9v12.4l6.2-12.4h1.9v15.4H78.6z"/>
		<path class="st2" d="M89.6,68.7v-4.9h-4.3v4.9h-1.8V58.1h1.8v4.4h4.3v-4.4h1.8v10.6H89.6z"/>
		<path class="st2" d="M104.9,68.7l-1.2-3c-0.5-1.3-1.1-1.9-2-1.9H101v4.9h-1.8v-4.9h-0.7c-0.9,0-1.5,0.5-2,1.9l-1.2,3h-1.9l1.5-3.6
			c0.6-1.4,1.3-1.9,1.6-2V63c-0.3-0.2-0.8-0.7-1.2-1.7c-0.4-1.2-0.6-1.7-1.6-1.7h-0.1v-1.5h0.7c1.2,0,1.6,0.9,2,1.8l0.5,1.1
			c0.5,1.4,1.1,1.6,1.9,1.6h0.5v-4.4h1.8v4.4h0.5c0.8,0,1.4-0.2,1.9-1.6l0.5-1.1c0.4-0.9,0.8-1.8,2-1.8h0.7v1.5h-0.1
			c-1,0-1.2,0.5-1.6,1.7c-0.3,1-0.9,1.5-1.2,1.7v0.1c0.4,0.1,1.1,0.6,1.6,2l1.5,3.6H104.9z"/>
		<path class="st2" d="M115.4,68.7v-8.2l-4.6,8.2H109V58.1h1.8v8.2l4.6-8.2h1.9v10.6H115.4z"/>
		<path class="st2" d="M126.3,68.7v-4.9H122v4.9h-1.8V58.1h1.8v4.4h4.3v-4.4h1.8v10.6H126.3z"/>
		<path class="st2" d="M137.5,68.7v-8.2l-4.6,8.2H131V58.1h1.8v8.2l4.6-8.2h1.9v10.6H137.5z"/>
		<path class="st2" d="M146.4,68.9c-0.9,0-1.7-0.2-2.3-0.5v5.1h-1.8V58.1h1.6l0.2,1c0,0,1-1.2,3-1.2c2.7,0,3.7,2.2,3.7,5.1
			C150.8,67.4,148.4,68.9,146.4,68.9z M146.6,59.4c-1.9,0-2.5,1.5-2.5,1.5v6.1c0,0,0.8,0.7,2.1,0.7c1.7,0,2.8-1.1,2.8-4.6
			C149,61.4,148.5,59.4,146.6,59.4z"/>
		<path class="st2" d="M159.8,68.7v-8.2l-4.6,8.2h-1.9V58.1h1.8v8.2l4.6-8.2h1.9v10.6H159.8z"/>
		<path class="st2" d="M170.7,68.7v-4.9h-4.3v4.9h-1.8V58.1h1.8v4.4h4.3v-4.4h1.8v10.6H170.7z"/>
		<path class="st2" d="M177.2,59.5v9.2h-1.8V58.1h5.3v1.4H177.2z"/>
		<path class="st2" d="M181.8,68.8c-0.7,0-1.3-0.6-1.3-1.3c0-0.7,0.6-1.3,1.3-1.3c0.7,0,1.3,0.6,1.3,1.3
			C183.1,68.2,182.5,68.8,181.8,68.8z"/>
		<path class="st2" d="M196,68.7v-14h-5.8v14h-1.9V53.3h9.5v15.4H196z"/>
		<path class="st2" d="M204.4,68.9c-0.9,0-1.7-0.2-2.3-0.5v5.1h-1.8V58.1h1.6l0.2,1c0,0,1-1.2,3-1.2c2.7,0,3.7,2.2,3.7,5.1
			C208.9,67.4,206.5,68.9,204.4,68.9z M204.6,59.4c-1.9,0-2.5,1.5-2.5,1.5v6.1c0,0,0.8,0.7,2.1,0.7c1.7,0,2.8-1.1,2.8-4.6
			C207,61.4,206.6,59.4,204.6,59.4z"/>
		<path class="st2" d="M214.9,69c-2.4,0-4.3-1.8-4.3-5.6c0-4.8,2.7-5.5,4.4-5.5c1.7,0,4.4,0.8,4.4,5.5C219.4,67.2,217.3,69,214.9,69
			z M215,59.2c-1,0-2.5,0.3-2.5,4.2c0,2.9,1,4.3,2.5,4.3c1.6,0,2.5-1.4,2.5-4.3C217.5,59.5,215.9,59.2,215,59.2z"/>
		<path class="st2" d="M224.8,68.9c-2.5,0-4-1.7-4-5.4c0-4.7,2.7-5.5,4.4-5.5c1,0,1.6,0.1,2,0.2v1.5c-0.4-0.1-1.3-0.3-1.9-0.3
			c-1.1,0-2.7,0.4-2.7,4.2c0,2.9,0.9,4,2.8,4c0.5,0,1.3-0.2,1.7-0.5v1.4C226.9,68.5,226.4,68.9,224.8,68.9z"/>
		<path class="st2" d="M233,59.5v9.2h-1.8v-9.2h-2.9v-1.4h7.6v1.4H233z"/>
		<path class="st2" d="M240.6,69c-2.4,0-4.3-1.8-4.3-5.6c0-4.8,2.7-5.5,4.4-5.5c1.7,0,4.4,0.8,4.4,5.5C245.1,67.2,243,69,240.6,69z
			 M240.7,59.2c-1,0-2.5,0.3-2.5,4.2c0,2.9,1,4.3,2.5,4.3c1.6,0,2.5-1.4,2.5-4.3C243.2,59.5,241.7,59.2,240.7,59.2z"/>
		<path class="st2" d="M248.5,68.8c-0.7,0-1.3-0.6-1.3-1.3c0-0.7,0.6-1.3,1.3-1.3c0.7,0,1.3,0.6,1.3,1.3
			C249.8,68.2,249.2,68.8,248.5,68.8z"/>
	</g>
</g>
<rect x="280.1" y="7.2" class="st1" width="1" height="66.3"/>
<g>
	<path class="st1" d="M318.1,6.9c3.3,0,6.7,1,6.7,5.4c0,3.5-2.5,5.1-5.7,5.1h-2.9v4.7h-4.6V6.9H318.1z M316.1,13.9h2.2
		c1.1,0,1.9-0.4,1.9-1.6c0-1.1-0.6-1.6-2-1.6h-2.2V13.9z"/>
	<path class="st1" d="M340.3,22.1h-4.7l-0.7-2.2H330l-0.7,2.2h-4.7l5.6-15.2h4.6L340.3,22.1z M333,14.1c-0.3-1-0.4-1.3-0.6-2.3
		c-0.3,1-0.3,1.4-0.6,2.3c0,0-0.3,1-0.8,2.6h2.9C333.6,15.8,333,14.1,333,14.1z"/>
	<path class="st1" d="M348.3,22.5c-4.3,0-6.9-2.1-6.9-5.5h4.7c0.1,1.5,1.1,1.9,2.1,1.9c1.4,0,2.2-0.7,2.2-1.8c0-1.4-1.3-1.5-2.4-1.5
		c-0.3,0-0.7,0-1,0v-2.9c0.2,0,0.6,0,0.7,0c1,0,2.6,0.1,2.6-1.4c0-0.9-0.8-1.4-2-1.4c-1.2,0-2.1,0.6-2.1,1.5h-4.4
		c0-3.1,2.6-4.9,6.6-4.9c3.6,0,6.1,1.4,6.1,4.3c0,1.3-0.9,2.7-2.2,3.1c1.4,0.3,2.7,1.6,2.7,3.4C355.1,21.1,351.8,22.5,348.3,22.5z"
		/>
	<path class="st1" d="M364.5,6.9c3.3,0,6.7,1,6.7,5.4c0,3.5-2.5,5.1-5.7,5.1h-2.9v4.7h-4.6V6.9H364.5z M362.5,13.9h2.2
		c1.1,0,1.9-0.4,1.9-1.6c0-1.1-0.6-1.6-2-1.6h-2.2V13.9z"/>
	<path class="st1" d="M386.7,22.1H382l-0.7-2.2h-4.9l-0.7,2.2h-4.7l5.6-15.2h4.6L386.7,22.1z M379.4,14.1c-0.3-1-0.4-1.3-0.6-2.3
		c-0.3,1-0.3,1.4-0.6,2.3c0,0-0.3,1-0.8,2.6h2.9C380,15.8,379.4,14.1,379.4,14.1z"/>
	<path class="st1" d="M393.4,12.5h3.4c2.5,0,5.8,0.9,5.8,4.6c0,3.8-2.5,5-6.5,5h-7.3V6.9h12.6v3.6h-8.1V12.5z M393.4,15.8v2.8h2.6
		c1.1,0,2.1-0.2,2.1-1.4c0-1.3-1-1.4-2.4-1.4H393.4z"/>
	<path class="st1" d="M420.6,14.5c0,4.8-3.1,8-7.7,8c-4.7,0-7.8-3.2-7.8-8c0-4.8,3.1-8,7.8-8C417.6,6.5,420.6,9.7,420.6,14.5z
		 M410,14.4c0,2.7,1.1,4.3,3,4.3c1.9,0,2.9-1.5,2.9-4.4c0-2.5-1.1-4.1-3-4.1C411.1,10.2,410,11.8,410,14.4z"/>
	<path class="st1" d="M435.8,10.8h-4.3v11.3h-4.7V10.8h-4.3V6.9h13.2V10.8z"/>
	<path class="st1" d="M447.8,12.8l6.4,9.3h-5.8l-3.7-5.9l-1.4,1.4v4.5h-4.6V6.9h4.6l0,3.1c0,1.5,0,1-0.1,2.3l4.3-5.4h5.8L447.8,12.8
		z"/>
	<path class="st1" d="M470.6,22.1h-4.7l-0.7-2.2h-4.9l-0.7,2.2h-4.7l5.6-15.2h4.6L470.6,22.1z M463.3,14.1c-0.3-1-0.4-1.3-0.6-2.3
		c-0.3,1-0.3,1.4-0.6,2.3c0,0-0.3,1-0.8,2.6h2.9C463.9,15.8,463.3,14.1,463.3,14.1z"/>
	<path class="st1" d="M325.2,47.8h-4.7V36.5h-4.4v11.3h-4.7V32.6h13.8V47.8z"/>
	<path class="st1" d="M335.3,32.6c3.3,0,6.7,1,6.7,5.4c0,3.5-2.5,5.1-5.7,5.1h-2.9v4.7h-4.6V32.6H335.3z M333.3,39.6h2.2
		c1.1,0,1.9-0.4,1.9-1.6c0-1.1-0.6-1.6-2-1.6h-2.2V39.6z"/>
	<path class="st1" d="M359.8,40.2c0,4.8-3.1,8-7.7,8c-4.7,0-7.8-3.2-7.8-8c0-4.8,3.1-8,7.8-8C356.7,32.2,359.8,35.4,359.8,40.2z
		 M349.1,40.1c0,2.7,1.1,4.3,3,4.3c1.9,0,2.9-1.5,2.9-4.4c0-2.5-1.1-4.1-3-4.1C350.2,35.9,349.1,37.5,349.1,40.1z"/>
	<path class="st1" d="M376.6,47.8h-4.4v-5.7c0-1,0-2.8,0.1-3.7l-4.4,9.5h-5V32.6h4.5v5.8c0,0.9,0,2.5-0.1,3.6l4.4-9.4h5V47.8z"/>
	<path class="st1" d="M386,48.2c-4.3,0-6.9-2.1-6.9-5.5h4.7c0.1,1.5,1.1,1.9,2.1,1.9c1.4,0,2.2-0.7,2.2-1.8c0-1.4-1.3-1.5-2.4-1.5
		c-0.3,0-0.7,0-1,0v-2.9c0.2,0,0.6,0,0.7,0c1,0,2.6,0.1,2.6-1.4c0-0.9-0.8-1.4-2-1.4c-1.2,0-2.1,0.6-2.1,1.5h-4.4
		c0-3.1,2.6-4.9,6.6-4.9c3.6,0,6.1,1.4,6.1,4.3c0,1.3-0.9,2.7-2.2,3.1c1.4,0.3,2.7,1.6,2.7,3.4C392.7,46.7,389.5,48.2,386,48.2z"/>
	<path class="st1" d="M403.2,32.6c2.5,0,5.4,0.7,5.4,3.8c0,1.5-0.7,2.4-1.9,3.1c1.7,0.6,2.7,1.8,2.7,3.7c0,3.6-2.9,4.6-5.8,4.6h-8
		V32.6H403.2z M400.1,38.4h2.6c0.9,0,1.4-0.4,1.4-1.2c0-0.8-0.5-1.2-1.6-1.2h-2.4V38.4z M400.1,44.2h2.9c1.2,0,1.8-0.5,1.8-1.4
		s-0.6-1.5-1.8-1.5h-2.9V44.2z"/>
	<path class="st1" d="M427.4,40.2c0,4.8-3.1,8-7.7,8c-4.7,0-7.8-3.2-7.8-8c0-4.8,3.1-8,7.8-8C424.3,32.2,427.4,35.4,427.4,40.2z
		 M416.7,40.1c0,2.7,1.1,4.3,3,4.3c1.9,0,2.9-1.5,2.9-4.4c0-2.5-1.1-4.1-3-4.1C417.8,35.9,416.7,37.5,416.7,40.1z"/>
	<path class="st1" d="M443.9,32.6v11.3h1.9v7.4h-4.2v-3.6h-8.5v3.6h-4.3v-7.4h1.6c1.2-2.3,1.8-6.1,1.8-10v-1.4H443.9z M439.3,36.4
		h-2.9v1.3c0,1.8-0.7,5-1.4,6.2h4.3V36.4z"/>
	<path class="st1" d="M455.5,48.2c-4.7,0-7.6-3.5-7.6-8c0-4.5,3.1-8,7.7-8c3.7,0,6.7,2.6,6.9,6h-4.5c-0.3-1.4-1.1-2.1-2.5-2.1
		c-2.2,0-2.9,2.2-2.9,4.1c0,2.5,1.1,4.1,2.9,4.1c1.4,0,2.2-0.9,2.5-2.4h4.6C462.3,46,459.2,48.2,455.5,48.2z"/>
	<path class="st1" d="M477.6,36.5h-4.3v11.3h-4.7V36.5h-4.3v-3.9h13.2V36.5z"/>
	<path class="st1" d="M488.1,32.6c2.5,0,5.4,0.7,5.4,3.8c0,1.5-0.7,2.4-1.9,3.1c1.7,0.6,2.7,1.8,2.7,3.7c0,3.6-2.9,4.6-5.8,4.6h-8
		V32.6H488.1z M484.9,38.4h2.6c0.9,0,1.4-0.4,1.4-1.2c0-0.8-0.5-1.2-1.6-1.2h-2.4V38.4z M484.9,44.2h2.9c1.2,0,1.8-0.5,1.8-1.4
		s-0.6-1.5-1.8-1.5h-2.9V44.2z"/>
	<path class="st1" d="M512.2,40.2c0,4.8-3.1,8-7.7,8c-4.7,0-7.8-3.2-7.8-8c0-4.8,3.1-8,7.8-8C509.2,32.2,512.2,35.4,512.2,40.2z
		 M501.5,40.1c0,2.7,1.1,4.3,3,4.3c1.9,0,2.9-1.5,2.9-4.4c0-2.5-1.1-4.1-3-4.1C502.7,35.9,501.5,37.5,501.5,40.1z"/>
	<path class="st1" d="M325.2,73.5h-4.7V62.2h-4.4v11.3h-4.7V58.3h13.8V73.5z"/>
	<path class="st1" d="M343.7,65.9c0,4.8-3.1,8-7.7,8c-4.7,0-7.8-3.2-7.8-8c0-4.8,3.1-8,7.8-8C340.6,57.9,343.7,61.1,343.7,65.9z
		 M333,65.8c0,2.7,1.1,4.3,3,4.3c1.9,0,2.9-1.5,2.9-4.4c0-2.5-1.1-4.1-3-4.1C334.1,61.6,333,63.2,333,65.8z"/>
	<path class="st1" d="M354,73.9c-4.7,0-7.6-3.5-7.6-8c0-4.5,3.1-8,7.7-8c3.7,0,6.7,2.6,6.9,6h-4.5c-0.3-1.4-1.1-2.1-2.5-2.1
		c-2.2,0-2.9,2.2-2.9,4.1c0,2.5,1.1,4.1,2.9,4.1c1.4,0,2.2-0.9,2.5-2.4h4.6C360.8,71.7,357.7,73.9,354,73.9z"/>
	<path class="st1" d="M376.1,62.2h-4.3v11.3h-4.7V62.2h-4.3v-3.9h13.2V62.2z"/>
	<path class="st1" d="M391.7,73.5H387l-0.7-2.2h-4.9l-0.7,2.2h-4.7l5.6-15.2h4.6L391.7,73.5z M384.4,65.4c-0.3-1-0.4-1.3-0.6-2.3
		c-0.3,1-0.3,1.4-0.6,2.3c0,0-0.3,1-0.8,2.6h2.9C384.9,67.2,384.4,65.4,384.4,65.4z"/>
	<path class="st1" d="M401.5,58.3c2.5,0,5.4,0.7,5.4,3.8c0,1.5-0.7,2.4-1.9,3.1c1.7,0.6,2.7,1.8,2.7,3.7c0,3.6-2.9,4.6-5.8,4.6h-8
		V58.3H401.5z M398.3,64.1h2.6c0.9,0,1.4-0.4,1.4-1.2c0-0.8-0.5-1.2-1.6-1.2h-2.4V64.1z M398.3,69.9h2.9c1.2,0,1.8-0.5,1.8-1.4
		s-0.6-1.5-1.8-1.5h-2.9V69.9z"/>
	<path class="st1" d="M419.8,64.2l6.4,9.3h-5.8l-3.7-5.9l-1.4,1.4v4.5h-4.6V58.3h4.6l0,3.1c0,1.5,0,1-0.1,2.3l4.3-5.4h5.8
		L419.8,64.2z"/>
	<path class="st1" d="M442.7,73.5h-4.7l-0.7-2.2h-4.9l-0.7,2.2h-4.7l5.6-15.2h4.6L442.7,73.5z M435.3,65.4c-0.3-1-0.4-1.3-0.6-2.3
		c-0.3,1-0.3,1.4-0.6,2.3c0,0-0.3,1-0.8,2.6h2.9C435.9,67.2,435.3,65.4,435.3,65.4z"/>
</g>
</svg>
