<svg version="1.1" id="Layer_1" xmlns="http://www.w3.org/2000/svg" xmlns:xlink="http://www.w3.org/1999/xlink" x="0px" y="0px"
	 viewBox="-49 141 512 512" style="enable-background:new -49 141 512 512;" xml:space="preserve">
<path style="fill:#E2E5E7;" d="M79,141c-17.6,0-32,14.4-32,32v448c0,17.6,14.4,32,32,32h320c17.6,0,32-14.4,32-32V269L303,141H79z"
	/>
<path style="fill:#B0B7BD;" d="M335,269h96L303,141v96C303,254.6,317.4,269,335,269z"/>
<polygon style="fill:#CAD1D8;" points="431,365 335,269 431,269 "/>
<path style="fill:#84BD5A;" d="M367,557c0,8.8-7.2,16-16,16H-1c-8.8,0-16-7.2-16-16V397c0-8.8,7.2-16,16-16h352c8.8,0,16,7.2,16,16
	V557z"/>
<g>
	<path style="fill:#FFFFFF;" d="M95.336,467.192l22.256-27.888c6.656-8.704,19.584,2.416,12.288,10.736
		c-7.664,9.088-15.728,18.944-23.408,29.04l26.096,32.496c7.04,9.6-7.024,18.8-13.936,9.328L95.08,490.712L71.928,521.56
		c-6.528,9.328-20.992-1.152-13.696-9.856l25.712-32.624c-8.064-10.112-15.872-19.952-23.664-29.04
		c-8.048-9.6,6.912-19.44,12.8-10.464L95.336,467.192z"/>
	<path style="fill:#FFFFFF;" d="M148.36,444.152c0-4.224,3.584-7.808,8.064-7.808c4.096,0,7.552,3.6,7.552,7.808v64.096h34.8
		c12.528,0,12.8,16.752,0,16.752H156.44c-4.48,0-8.064-3.184-8.064-7.792v-73.056H148.36z"/>
	<path style="fill:#FFFFFF;" d="M223.032,455.672c2.944-24.832,40.416-29.296,58.08-15.728c8.704,7.024-0.512,18.16-8.192,12.528
		c-9.472-6-30.96-8.816-33.648,4.464c-3.456,20.992,52.192,8.976,51.296,43.008c-0.896,32.496-47.968,33.248-65.632,18.672
		c-4.24-3.456-4.096-9.072-1.792-12.544c3.328-3.312,7.024-4.464,11.392-0.88c10.48,7.152,37.488,12.528,39.392-5.648
		C272.28,480.632,219.064,492.008,223.032,455.672z"/>
</g>
<path style="fill:#CAD1D8;" d="M351,573H47v16h304c8.8,0,16-7.2,16-16v-16C367,565.8,359.8,573,351,573z"/>
</svg>
