<svg xmlns="http://www.w3.org/2000/svg" viewBox="0 0 512.15 393.53">
    <g id="Слой_2" data-name="Слой 2">
        <g id="Layer_1" data-name="Layer 1">
            <path fill="#ba2d20" stroke='#ba2d20' stroke-miterlimit='10' class="cls-1" d="M255.65,393c-5.12,0-129.71-1.71-169-5.12a18.79,18.79,0,0,0-6.83-.85c-13.65-1.71-35-4.27-52.91-24.75C10.74,344.39,5.62,306.85,5.62,305.14c0-.85-5.12-44.37-5.12-87V178c0-43.52,5.12-87,5.12-87,0-1.71,5.12-40.11,22.19-58C46.58,11.59,67.91,9,79.86,8.18h2.56C150.69,1.35,254.79.5,255.65.5c1.71,0,105,.85,174.08,6h3.41c11.09.85,32.43,3.41,52.05,24.75,16.21,17.92,21.33,55.47,21.33,57.17h0c0,.85,5.12,44.37,5.12,87v40.11c0,43.52-5.12,87-5.12,87,0,1.71-5.12,40.11-22.19,58-18.77,21.33-40.11,23.89-52.05,24.75h-2.56C360.61,393,256.5,393,255.65,393Z" />
            <path class="cls-2" fill="#ffffff" d="M195.91,304.29a7.69,7.69,0,0,1-4.27-.85,9,9,0,0,1-4.27-7.68V110.58a9,9,0,0,1,4.27-7.68,7.75,7.75,0,0,1,8.53,0l162.13,94.72a9,9,0,0,1,0,15.36L200.18,303.43A7.69,7.69,0,0,1,195.91,304.29Z" />
        </g>
    </g>
</svg>