<svg xmlns="http://www.w3.org/2000/svg" viewBox="0 0 512.15 393.53" fill="#ba2d20">
    <g id="Слой_2" data-name="Слой 2">
        <g id="Layer_1" data-name="Layer 1">
            <path stroke='#ba2d20' stroke-miterlimit='10'  class="cls-1" d="M255.65,393c-5.12,0-129.71-1.71-169-5.12a18.79,18.79,0,0,0-6.83-.85c-13.65-1.71-35-4.27-52.91-24.75C10.74,344.39,5.62,306.85,5.62,305.14c0-.85-5.12-44.37-5.12-87V178c0-43.52,5.12-87,5.12-87,0-1.71,5.12-40.11,22.19-58C46.58,11.59,67.91,9,79.86,8.18h2.56C150.69,1.35,254.79.5,255.65.5c1.71,0,105,.85,174.08,6h3.41c11.09.85,32.43,3.41,52.05,24.75,16.21,17.92,21.33,55.47,21.33,57.17h0c0,.85,5.12,44.37,5.12,87v40.11c0,43.52-5.12,87-5.12,87,0,1.71-5.12,40.11-22.19,58-18.77,21.33-40.11,23.89-52.05,24.75h-2.56C360.61,393,256.5,393,255.65,393Zm0-375.47c-.85,0-104.11.85-172.37,6H80.71c-10.24.85-26.45,2.56-41.81,19.63C28.66,55.11,22.69,82.42,21.83,91.81c0,0-5.12,42.67-5.12,85.33v40.11c0,41.81,5.12,84.48,5.12,85.33.85,9.39,6.83,36.69,17.07,47.79,13.65,15.36,30.72,17.92,42.67,18.77,2.56,0,5.12.85,7.68.85,37.55,4.27,165.55,6,166.4,6s104.11,0,172.37-5.12h2.56c9.39-.85,26.45-2.56,41-19.63,11.09-11.95,16.21-39.25,17.92-48.64,0,0,5.12-42.67,5.12-85.33V177.14c0-41-4.27-83.63-5.12-85.33-1.71-9.39-6.83-36.69-17.07-48.64-14.51-17.07-31.57-18.77-41-19.63H428C359.75,18.42,256.5,17.57,255.65,17.57Z" />
            <path stroke='#ba2d20' stroke-miterlimit='10'  class="cls-1" d="M195.91,304.29a7.69,7.69,0,0,1-4.27-.85,9,9,0,0,1-4.27-7.68V110.58a9,9,0,0,1,4.27-7.68,7.75,7.75,0,0,1,8.53,0l162.13,94.72a9,9,0,0,1,0,15.36L200.18,303.43A7.69,7.69,0,0,1,195.91,304.29Zm8.53-179.2V281.25L341,205.3Z" />
        </g>
    </g>
</svg>