<?xml version="1.0" standalone="no"?>
<!DOCTYPE svg PUBLIC "-//W3C//DTD SVG 1.1//EN" "http://www.w3.org/Graphics/SVG/1.1/DTD/svg11.dtd" >
<svg xmlns="http://www.w3.org/2000/svg">
<metadata>Generated by IcoMoon</metadata>
<defs>
<font id="icon" horiz-adv-x="1024">
<font-face units-per-em="1024" ascent="960" descent="-64" />
<missing-glyph horiz-adv-x="1024" />
<glyph unicode="&#x20;" horiz-adv-x="512" d="" />
<glyph unicode="&#xe900;" glyph-name="agreement" d="M832 896h-160.002c-0.014 0-0.026-0.002-0.040-0.002-14.61 19.418-37.84 32.002-63.958 32.002h-40.78c-11.288 19.516-32.258 32-55.22 32s-43.932-12.484-55.22-32h-40.78c-26.118 0-49.348-12.584-63.958-32.002-0.014 0-0.028 0.002-0.042 0.002h-160c-44.112 0-80-35.888-80-80v-800c0-44.112 35.888-80 80-80h640c44.112 0 80 35.888 80 80v800c0 44.112-35.888 80-80 80zM368 848c0 26.466 21.534 48 48 48h50.94c6.77 0 12.808 4.262 15.076 10.64 4.54 12.776 16.59 21.36 29.984 21.36s25.444-8.584 29.984-21.36c2.268-6.378 8.306-10.64 15.076-10.64h50.94c26.466 0 48-21.534 48-48v-48h-288v48zM880 16c0-26.466-21.534-48-48-48h-640c-26.466 0-48 21.534-48 48v800c0 26.466 21.534 48 48 48h145.61c-1.054-5.172-1.61-10.522-1.61-16v-64c0-8.836 7.164-16 16-16h320c8.836 0 16 7.164 16 16v64c0 5.478-0.556 10.828-1.61 16h145.61c26.466 0 48-21.534 48-48v-800zM832 832h-96c-8.836 0-16-7.164-16-16s7.164-16 16-16h80v-560h-160c-26.466 0-48-21.534-48-48v-95.998c0-8.836 7.164-16 16-16s16 7.164 16 16v95.998c0 8.822 7.178 16 16 16h137.372l-176-176h-409.372v768h80c8.836 0 16 7.164 16 16s-7.164 16-16 16h-96c-8.836 0-16-7.164-16-16v-800c0-8.836 7.164-16 16-16h432.002c0.018 0 0.034 0.002 0.050 0.002 0.508 0.002 1.016 0.026 1.524 0.076 0.258 0.026 0.51 0.072 0.764 0.11 0.26 0.038 0.522 0.068 0.78 0.118 0.296 0.058 0.582 0.138 0.872 0.214 0.214 0.054 0.43 0.1 0.64 0.164 0.292 0.088 0.572 0.196 0.856 0.3 0.206 0.076 0.414 0.142 0.618 0.226 0.276 0.114 0.54 0.246 0.806 0.374 0.204 0.098 0.41 0.186 0.61 0.294 0.276 0.146 0.538 0.312 0.802 0.474 0.18 0.11 0.362 0.21 0.538 0.326 0.32 0.214 0.626 0.448 0.928 0.682 0.108 0.084 0.222 0.158 0.33 0.246 0.43 0.35 0.84 0.722 1.23 1.116l207.96 207.96c0.024 0.024 0.042 0.052 0.066 0.078 0.47 0.476 0.898 0.988 1.306 1.518 0.11 0.144 0.22 0.288 0.324 0.434 0.398 0.558 0.77 1.134 1.096 1.742 0.034 0.062 0.060 0.128 0.092 0.192 0.294 0.566 0.548 1.154 0.774 1.756 0.052 0.14 0.106 0.278 0.154 0.42 0.226 0.66 0.42 1.334 0.56 2.030 0.008 0.038 0.010 0.078 0.018 0.116 0.12 0.63 0.196 1.274 0.24 1.928 0.014 0.192 0.022 0.382 0.030 0.574 0.006 0.178 0.026 0.35 0.026 0.53v592c0.004 8.836-7.16 16-15.996 16zM512 896c-4.22 0-8.34-1.7-11.32-4.68s-4.68-7.1-4.68-11.32c0-4.22 1.7-8.34 4.68-11.32s7.1-4.68 11.32-4.68c4.2 0 8.34 1.7 11.32 4.68s4.68 7.1 4.68 11.32c0 4.22-1.7 8.34-4.68 11.32s-7.12 4.68-11.32 4.68zM576 656h160c8.836 0 16 7.164 16 16s-7.164 16-16 16h-160c-8.836 0-16-7.164-16-16s7.164-16 16-16zM448 592h288c8.836 0 16 7.164 16 16s-7.164 16-16 16h-288c-8.836 0-16-7.164-16-16s7.164-16 16-16zM736 496h-448c-8.836 0-16-7.164-16-16s7.164-16 16-16h448c8.836 0 16 7.164 16 16s-7.164 16-16 16zM736 432h-448c-8.836 0-16-7.164-16-16s7.164-16 16-16h448c8.836 0 16 7.164 16 16s-7.164 16-16 16zM736 368h-448c-8.836 0-16-7.164-16-16s7.164-16 16-16h448c8.836 0 16 7.164 16 16s-7.164 16-16 16zM752 288c0 8.836-7.164 16-16 16h-448c-8.836 0-16-7.164-16-16s7.164-16 16-16h448c8.836 0 16 7.164 16 16zM560 240h-128c-8.836 0-16-7.164-16-16s7.164-16 16-16h128c8.836 0 16 7.164 16 16s-7.164 16-16 16zM560 176h-128c-8.836 0-16-7.164-16-16s7.164-16 16-16h128c8.836 0 16 7.164 16 16s-7.164 16-16 16zM272 672c0-8.836 7.164-16 16-16h80c8.836 0 16 7.164 16 16s-7.164 16-16 16h-80c-8.836 0-16-7.164-16-16zM240 168c0-39.702 32.298-72 72-72s72 32.298 72 72-32.298 72-72 72-72-32.298-72-72zM352 168c0-22.056-17.944-40-40-40s-40 17.944-40 40 17.944 40 40 40 40-17.944 40-40z" />
<glyph unicode="&#xe901;" glyph-name="attach" d="M929.427 890.429h-401.121v9.784c0 32.968-26.822 59.788-59.788 59.788h-69.572c-32.966 0-59.788-26.82-59.788-59.788v-9.784h-96.746c-9.008 0-16.306-7.3-16.306-16.306v-131.532h-131.532c-9.008 0-16.306-7.3-16.306-16.306v-608.737c0-0.542 0.028-1.084 0.082-1.624 0.022-0.22 0.064-0.432 0.094-0.65 0.044-0.31 0.080-0.62 0.142-0.928 0.050-0.258 0.122-0.508 0.184-0.76 0.066-0.264 0.124-0.526 0.202-0.788 0.076-0.25 0.17-0.49 0.256-0.734 0.092-0.258 0.178-0.518 0.282-0.772 0.096-0.228 0.206-0.448 0.31-0.672 0.122-0.258 0.236-0.52 0.372-0.774 0.116-0.216 0.246-0.418 0.37-0.626 0.148-0.248 0.29-0.5 0.45-0.742 0.152-0.228 0.322-0.442 0.486-0.664 0.154-0.206 0.298-0.418 0.464-0.618 0.318-0.384 0.654-0.754 1.004-1.11 0.026-0.026 0.048-0.056 0.074-0.082l165.232-165.232c0.022-0.022 0.046-0.040 0.066-0.058 0.36-0.356 0.738-0.698 1.13-1.022 0.182-0.15 0.376-0.28 0.564-0.422 0.24-0.178 0.472-0.364 0.72-0.53 0.222-0.15 0.454-0.278 0.68-0.416 0.228-0.136 0.452-0.28 0.688-0.406 0.232-0.124 0.474-0.23 0.714-0.344 0.244-0.116 0.482-0.236 0.732-0.34 0.232-0.096 0.472-0.174 0.708-0.258 0.266-0.096 0.526-0.198 0.796-0.278 0.24-0.072 0.48-0.124 0.722-0.184 0.274-0.070 0.546-0.146 0.824-0.2 0.28-0.056 0.564-0.088 0.846-0.128 0.244-0.034 0.484-0.082 0.73-0.104 0.534-0.052 1.072-0.080 1.608-0.080h478.303c9.008 0 16.306 7.3 16.306 16.306v70.658h175.014c9.008 0 16.306 7.3 16.306 16.306v834.854c0.004 9.004-7.294 16.304-16.302 16.304zM371.77 900.213c0 14.986 12.19 27.176 27.176 27.176h69.572c14.986 0 27.176-12.19 27.176-27.176v-9.784h-123.924v9.784zM339.16 857.819v-115.228h-80.442v115.228h80.442zM242.411 101.231h1.088v-109.56l-109.56 109.56h108.472zM721.8-31.389h-445.691v148.926c0 9.006-7.298 16.306-16.306 16.306h-148.926v576.135h228.28v-80.442h-131.532c-9.008 0-16.306-7.3-16.306-16.306s7.298-16.306 16.306-16.306h133.812c7.118-25.062 30.196-43.482 57.51-43.482h26.090c27.314 0 50.392 18.418 57.51 43.482h151.204c9.008 0 16.306 7.3 16.306 16.306s-7.298 16.306-16.306 16.306h-148.926v80.442h236.974v-741.367zM371.77 629.538v80.442h80.442v-80.442h-80.442zM446.724 596.926c-4.964-6.586-12.826-10.87-21.688-10.87h-26.090c-8.864 0-16.726 4.286-21.688 10.87h69.466zM913.123 55.575h-158.71v670.709c0 9.006-7.298 16.306-16.306 16.306h-253.282v79.354c0 9.006-7.298 16.306-16.306 16.306s-16.306-7.3-16.306-16.306v-79.354h-80.442v115.228h541.351v-802.243zM633.75 490.394h-426.125c-9.008 0-16.306-7.3-16.306-16.306s7.298-16.306 16.306-16.306h426.125c9.008 0 16.306 7.3 16.306 16.306s-7.3 16.306-16.306 16.306zM633.75 351.252h-426.125c-9.008 0-16.306-7.3-16.306-16.306s7.298-16.306 16.306-16.306h426.125c9.008 0 16.306 7.3 16.306 16.306s-7.3 16.306-16.306 16.306zM633.75 212.11h-426.125c-9.008 0-16.306-7.3-16.306-16.306s7.298-16.306 16.306-16.306h426.125c9.008 0 16.306 7.3 16.306 16.306s-7.3 16.306-16.306 16.306z" />
<glyph unicode="&#xe902;" glyph-name="attach-file" horiz-adv-x="983" d="M620.080 745.868c-9.767-0.034-18.692-3.614-25.559-9.52l0.052 0.044-312.134-310.319c-31.067-28.271-50.49-68.868-50.49-114.001 0-1.745 0.029-3.484 0.086-5.215l-0.007 0.252c-0.015-0.733-0.023-1.598-0.023-2.464 0-37.293 15.457-70.975 40.312-94.991l0.038-0.036c26.786-23.968 62.346-38.621 101.328-38.621 2.019 0 4.028 0.039 6.028 0.117l-0.288-0.009h0.907c46.638 0.167 88.744 19.431 118.932 50.375l0.033 0.034 361.837 361.333c91.644 91.644 94.063 221.8 5.747 310.521-42.040 41.971-100.080 67.925-164.183 67.925s-122.142-25.955-164.185-67.928l-453.176-453.075c-51.953-53.324-83.995-126.266-83.995-206.691 0-163.645 132.66-296.305 296.305-296.305 80.425 0 153.367 32.042 206.755 84.058l-0.064-0.062 469.108 470.822c6.263 7.072 10.087 16.429 10.087 26.679 0 0.226-0.002 0.451-0.006 0.676v-0.034c0 0.030 0 0.065 0 0.101 0 21.938-17.785 39.723-39.723 39.723 0 0 0 0 0 0v0c-10.433-0.238-19.826-4.504-26.722-11.296l0.005 0.005-469.209-470.116c-39.154-39.154-93.245-63.372-152.991-63.372-119.495 0-216.363 96.87-216.363 216.363 0 59.747 24.217 113.838 63.372 152.991l453.078 453.078c27.575 27.517 65.637 44.532 107.674 44.532s80.099-17.016 107.677-44.535l-0.003 0.003c25.667-23.989 41.663-58.046 41.663-95.84 0-0.9-0.009-1.798-0.027-2.693l0.002 0.133c-2.787-39.327-20.432-74.065-47.291-99.019l-0.093-0.085-362.946-362.946c-15.848-15.921-37.771-25.782-61.998-25.809h-0.005c-44.461 0-67.851 28.128-67.851 55.753 0.063 24.226 9.915 46.139 25.808 62.002l0.001 0.001 312.537 311.428c5.889 6.874 9.473 15.873 9.473 25.709 0 21.882-17.74 39.622-39.622 39.622-0.034 0-0.068 0-0.102 0h0.005z" />
<glyph unicode="&#xe903;" glyph-name="commissioning-works" horiz-adv-x="1080" d="M1065.265 930.218c-1.822 7.534-7.673 13.345-15.092 15.079l-0.137 0.027c-37.838 9.175-81.278 14.437-125.947 14.437-246.231 0-455.117-159.895-528.491-381.518l-1.128-3.932c-7.43 0.798-14.86 1.29-22.29 1.412-1.491 0.033-3.248 0.052-5.010 0.052-83.724 0-157.497-42.603-200.824-107.313l-0.551-0.874c-2.274-3.224-3.635-7.233-3.635-11.561 0-11.158 9.045-20.202 20.202-20.202 2.312 0 4.533 0.388 6.601 1.103l-0.142-0.043c17.373 5.772 37.391 9.251 58.174 9.577l0.161 0.002h3.623c0.144 0 0.315 0.001 0.485 0.001 81.98 0 152.552-48.845 184.2-119.020l0.514-1.274c2.076-4.621 5.696-8.24 10.189-10.265l0.127-0.051c71.595-32.307 120.526-103.067 120.526-185.256 0-22.050-3.522-43.277-10.034-63.15l0.406 1.433c-0.638-1.882-1.006-4.050-1.006-6.305 0-11.191 9.072-20.264 20.264-20.264 4.276 0 8.243 1.324 11.512 3.585l-0.067-0.044c65.587 43.985 108.18 117.835 108.18 201.633 0 1.627-0.016 3.251-0.048 4.87l0.004-0.242c0 7.43-0.614 14.922-1.412 22.29 225.401 74.614 385.149 283.435 385.149 529.566 0 44.777-5.287 88.319-15.271 130.037l0.766-3.791zM666.128 308.302c-8.529-2.494-14.654-10.244-14.654-19.426 0-1.317 0.126-2.605 0.367-3.851l-0.020 0.127c1.933-9.977 3.152-21.562 3.374-33.392l0.003-0.197c0.023-1.148 0.037-2.5 0.037-3.856 0-50.242-18.374-96.193-48.769-131.5l0.222 0.264c0 3.377 0.307 6.755 0.368 10.193 0.026 1.334 0.041 2.906 0.041 4.483 0 95.726-55.51 178.486-136.096 217.849l-1.433 0.632c-39.969 82.19-122.839 137.834-218.705 137.834-1.541 0-3.078-0.014-4.612-0.043l0.23 0.003c-3.377 0-6.755 0-10.132-0.368 35.133 30.051 81.109 48.34 131.355 48.34 13.287 0 26.275-1.279 38.848-3.72l-1.277 0.206c1.089-0.208 2.342-0.326 3.622-0.326 9.186 0 16.944 6.112 19.43 14.491l0.036 0.143c64.16 217.191 261.821 372.982 495.87 372.982 36.995 0 73.081-3.892 107.87-11.29l-3.378 0.601c6.797-31.417 10.69-67.508 10.69-104.508 0-234.061-155.789-431.736-369.332-494.989l-3.651-0.928zM866.74 837.803c-50.256-0.005-90.995-40.746-90.995-91.003 0-50.26 40.743-91.003 91.003-91.003s91.003 40.743 91.003 91.003c0 25.132-10.188 47.884-26.658 64.353v0c-16.375 16.462-39.043 26.65-64.090 26.65-0.092 0-0.185 0-0.277 0h0.014zM902.663 711c-9.274-8.862-21.869-14.316-35.738-14.316s-26.464 5.454-35.758 14.335l0.020-0.019c-9.151 9.156-14.81 21.801-14.81 35.769s5.66 26.613 14.81 35.769v0c9.283 8.866 21.889 14.322 35.769 14.322s26.486-5.456 35.789-14.341l-0.020 0.019c9.151-9.156 14.81-21.801 14.81-35.769s-5.66-26.613-14.81-35.769v0zM573.528 639.524c-23.788-23.791-38.501-56.656-38.501-92.958 0-72.609 58.861-131.469 131.469-131.469s131.469 58.861 131.469 131.469c0 36.302-14.713 69.167-38.501 92.958v0c-23.695 24.004-56.595 38.872-92.968 38.872s-69.273-14.868-92.954-38.858l-0.014-0.014zM730.727 482.203c-16.44-16.355-39.107-26.466-64.135-26.466-50.226 0-90.942 40.716-90.942 90.942s40.716 90.942 90.942 90.942c25.028 0 47.695-10.11 64.139-26.47l-0.004 0.004c16.664-16.425 26.988-39.245 26.988-64.476s-10.324-48.051-26.977-64.465l-0.011-0.011zM301.256 312.785c-0.109 0-0.238 0.001-0.367 0.001-36.19 0-68.941-14.719-92.596-38.496l-0.006-0.006c-46.545-46.484-82.222-227.876-85.968-248.386-0.209-1.093-0.329-2.35-0.329-3.635 0-11.191 9.072-20.264 20.264-20.264 1.267 0 2.506 0.116 3.708 0.338l-0.125-0.019c20.509 3.93 201.902 39.607 248.386 85.968 23.794 23.792 38.512 56.661 38.512 92.968 0 72.609-58.861 131.469-131.469 131.469-0.004 0-0.007 0-0.011 0h0.001zM365.609 116.962c-24.562-24.562-124.346-52.932-197.603-68.897 15.965 73.318 44.028 172.795 68.897 197.603 16.501 16.501 39.296 26.707 64.476 26.707 50.359 0 91.183-40.824 91.183-91.183 0-25.179-10.206-47.975-26.707-64.476v0zM39.3-37.841l-39.3 9.456 49.984 207.305 39.3-9.518zM265.334-64l-3.869 40.282 126.311 12.281 3.869-40.282z" />
<glyph unicode="&#xe904;" glyph-name="compass-(1)" d="M861.574-20.796l-110.292 270.108c23.68 9.852 46.792 21.158 69.166 33.922 15.038 8.576 20.276 27.72 11.698 42.758-8.576 15.038-27.722 20.278-42.758 11.696-19.994-11.406-40.646-21.518-61.804-30.34l-144.92 354.912c26.73 21.002 43.95 53.588 43.95 90.14 0 52.33-35.266 96.548-83.27 110.222v66.030c0 17.312-14.034 31.346-31.346 31.346s-31.346-14.034-31.346-31.346v-66.028c-48.004-13.674-83.27-57.892-83.27-110.222 0-36.552 17.22-69.138 43.95-90.14l-144.92-354.912c-21.156 8.818-41.808 18.934-61.804 30.34-15.034 8.578-34.18 3.342-42.758-11.696-8.576-15.038-3.342-34.182 11.698-42.758 22.374-12.762 45.486-24.072 69.166-33.922l-110.288-270.11c-6.546-16.026 1.144-34.326 17.172-40.87 16.024-6.546 34.326 1.144 40.87 17.17l111.326 272.644c48.284-14.598 98.302-23.336 148.862-25.896v-10.096c0-17.312 14.034-31.346 31.346-31.346s31.346 14.034 31.346 31.346v10.096c50.56 2.562 100.576 11.3 148.862 25.896l111.326-272.644c6.552-16.044 24.862-23.712 40.87-17.17 16.028 6.546 23.714 24.844 17.168 40.87zM512 804.324c28.63 0 51.922-23.292 51.922-51.922s-23.292-51.922-51.922-51.922-51.922 23.292-51.922 51.922c0 28.63 23.292 51.922 51.922 51.922zM543.346 265.044v22.294c0 17.312-14.034 31.346-31.346 31.346s-31.346-14.034-31.346-31.346v-22.294c-42.418 2.39-84.388 9.612-125.042 21.436l143.738 352.020c8.616-0.95 16.682-0.95 25.3 0l143.738-352.020c-40.654-11.824-82.622-19.046-125.042-21.436z" />
<glyph unicode="&#xe905;" glyph-name="compass-1" horiz-adv-x="885" d="M727.525-44.606l-34.695 110.205c15.878 11.585 23.413 32.428 17.191 52.192l-63.845 202.819h18.922c8.299 0 15.030 6.733 15.030 15.030 0 8.299-6.731 15.030-15.030 15.030h-28.386l-119.814 380.568c1.889 6.761 2.916 13.865 2.916 21.214v80.156c0 25.968-21.124 47.092-47.092 47.092h-17.036v65.127c0 8.299-6.723 15.030-15.030 15.030-8.299 0-15.030-6.731-15.030-15.030v-65.127h-17.036c-25.958 0-47.085-21.124-47.085-47.092v-80.156c0-7.369 1.027-14.493 2.926-21.274l-119.814-380.508h-28.395c-8.306 0-15.030-6.731-15.030-15.030 0-8.296 6.723-15.030 15.030-15.030h18.935l-63.855-202.819c-3.777-11.996-2.653-24.743 3.159-35.9 3.407-6.555 8.229-12.053 14.032-16.272l-34.708-110.225c-2.485-7.916 1.909-16.349 9.824-18.844 1.508-0.471 3.023-0.694 4.521-0.694 6.39 0 12.309 4.098 14.335 10.518l34.695 110.215c20.265 0.391 37.866 13.501 43.973 32.924l72.759 231.096h59.666v-17.036c0-25.968 21.126-47.092 47.094-47.092s47.094 21.124 47.094 47.092v17.036h59.686l72.749-231.096c6.104-19.413 23.709-32.524 43.971-32.924l34.698-110.215c2.017-6.42 7.946-10.518 14.335-10.518 1.485 0 3.014 0.223 4.509 0.694 7.916 2.495 12.319 10.929 9.824 18.844v0zM391.566 832.606c0 9.393 7.642 17.033 17.026 17.033h64.13c9.393 0 17.033-7.64 17.033-17.033v-80.156c0-5.804-1.017-11.37-2.876-16.547-0.050-0.138-0.098-0.263-0.138-0.401-6.916-18.736-24.961-32.143-46.085-32.143-21.029 0-39.004 13.288-45.99 31.907-0.165 0.616-0.371 1.215-0.616 1.801-1.603 4.845-2.485 10.010-2.485 15.382v80.156zM232.469 98.535c-2.242-7.134-8.767-11.918-16.244-11.918-1.721 0-3.444 0.265-5.127 0.794-4.333 1.358-7.885 4.333-9.979 8.364-2.104 4.043-2.515 8.649-1.145 12.995l184.979 587.504c8.339-8.269 18.504-14.686 29.836-18.622l-182.318-579.118zM440.657 286.54c-9.393 0-17.036 7.64-17.036 17.033v64.13c0 9.383 7.642 17.026 17.036 17.026s17.036-7.642 17.036-17.026v-64.13c0-9.393-7.642-17.033-17.036-17.033v0zM487.752 350.668v17.036c0 25.958-21.126 47.085-47.094 47.085s-47.094-21.126-47.094-47.085v-17.036h-50.206l97.31 309.101 97.308-309.101h-50.223zM648.856 98.535l-182.318 579.128c11.339 3.933 21.507 10.363 29.853 18.641l184.961-587.534c1.37-4.346 0.957-8.952-1.145-12.995-2.094-4.030-5.646-7.006-9.992-8.374-1.663-0.519-3.384-0.784-5.117-0.784-7.465-0.010-13.992 4.784-16.242 11.918v0z" />
<glyph unicode="&#xe906;" glyph-name="complex-approach" d="M654.614 315.718h346.138c5.706 0 10.332-4.626 10.332-10.332v-346.138c0-5.706-4.626-10.332-10.332-10.332h-346.138c-5.706 0-10.332 4.626-10.332 10.332v346.138c0 5.706 4.626 10.332 10.332 10.332zM181.042 315.718h346.138c5.706 0 10.332-4.626 10.332-10.332v-346.138c0-5.706-4.626-10.332-10.332-10.332h-346.138c-5.706 0-10.332 4.626-10.332 10.332v346.138c0 5.706 4.626 10.332 10.332 10.332zM654.614 789.29h346.138c5.706 0 10.332-4.626 10.332-10.332v-346.138c0-5.706-4.626-10.332-10.332-10.332h-346.138c-5.706 0-10.332 4.626-10.332 10.332v346.138c0 5.706 4.626 10.332 10.332 10.332zM15.952 699.299l244.756 244.756c4.035 4.035 10.577 4.035 14.612 0l244.756-244.756c4.035-4.035 4.035-10.577 0-14.612l-244.756-244.756c-4.035-4.035-10.577-4.035-14.612 0l-244.756 244.756c-4.035 4.035-4.035 10.577 0 14.612z" />
<glyph unicode="&#xe907;" glyph-name="contract" d="M796.233-29.867h-716.8v955.733h546.133v-170.667h170.667v-51.2h34.133v75.332l-180.668 180.668h-604.399v-1024h785.067v290.133h-34.133v-256zM659.699 901.734l112.401-112.401h-112.401v112.401zM147.699 857.6h34.133v-34.133h-34.133v34.133zM215.966 857.6h341.333v-34.133h-341.333v34.133zM147.699 789.333h409.6v-34.133h-409.6v34.133zM147.699 721.067h580.267v-34.133h-580.267v34.133zM147.699 652.8h580.267v-34.133h-580.267v34.133zM147.699 584.533h580.267v-34.133h-580.267v34.133zM147.699 516.267h580.267v-34.133h-580.267v34.133zM147.699 448h512v-34.133h-512v34.133zM147.699 379.733h512v-34.133h-512v34.133zM147.699 311.467h477.867v-34.133h-477.867v34.133zM147.699 243.2h443.733v-34.133h-443.733v34.133zM461.726 81.408c11.511-0.083 22.63 4.183 31.13 11.947 4.267 3.413 5.547 4.437 9.796 4.437s5.53-1.024 9.796-4.437c17.722-15.917 44.589-15.917 62.31 0 4.267 3.413 5.564 4.454 9.83 4.454s5.564-1.024 9.847-4.454c8.518-7.755 19.644-12.019 31.164-11.947v34.133c-4.267 0-5.564 1.024-9.847 4.454-17.732 15.902-44.595 15.902-62.327 0-4.267-3.413-5.564-4.454-9.83-4.454s-5.53 1.024-9.813 4.437c-17.705 15.927-44.572 15.927-62.276 0-4.267-3.413-5.547-4.437-9.779-4.437s-5.53 1.024-9.796 4.437c-8.508 7.772-19.642 12.038-31.164 11.947v-34.133c4.233 0 5.513-1.024 9.779-4.437 8.521-7.763 19.654-12.030 31.181-11.947zM948.535 723.644l-31.13 14.029c-25.786 11.603-56.098 0.107-67.701-25.679 0-0.002-0.002-0.004-0.002-0.006l-226.56-503.177 24.883-111.019 99.618 54.955 226.56 503.194c11.556 25.786 0.077 56.060-25.668 67.703zM671.441 149.845l-6.212 27.665 31.113-14.012-24.9-13.653zM725.935 187.631l-62.327 27.921 182.118 404.617 62.259-28.041-182.050-404.497zM943.006 669.867l-21.009-46.677-62.259 28.041 21.026 46.66c3.878 8.582 13.975 12.401 22.562 8.533l31.13-13.995c8.589-3.872 12.416-13.971 8.55-22.562z" />
<glyph unicode="&#xe908;" glyph-name="crane" d="M352.013 0.007h-191.993c-8.832 0-16 7.168-16 16v127.996c0 8.832 7.168 16 16 16h191.995c8.832 0 16-7.168 16-16v-127.996c-0.002-8.85-7.17-16-16.002-16zM176.020 32.005h159.995v95.996h-159.995v-95.996zM304.015 128.001h-95.998c-8.832 0-16 7.168-16 16v799.975c0 8.832 7.168 16 16 16h95.996c8.832 0 16-7.168 16-16v-799.975c0-8.848-7.166-16-15.998-16zM224.017 160.001h63.997v767.975h-63.999l0.002-767.975zM1007.992 719.983h-863.972c-8.832 0-16 7.168-16 16s7.168 16 16 16h847.972v31.999h-959.968v-31.999h47.999c8.832 0 16-7.168 16-16s-7.168-16-16-16h-63.999c-8.832 0-16 7.168-16 16v63.997c0 8.832 7.168 16 16 16h991.967c8.832 0 16-7.168 16-16v-63.997c0-8.848-7.168-16-16-16zM144.020 655.985h-63.999c-8.832 0-16 7.168-16 16v127.996c0 8.832 7.168 16 16 16h63.999c8.832 0 16-7.168 16-16v-127.996c0-8.848-7.168-16-16-16zM96.021 687.984h31.999v95.996h-31.999v-95.996zM16.040 783.98c-4.864 0-9.664 2.208-12.816 6.4-5.312 7.072-3.872 17.104 3.2 22.4l191.995 143.996c7.088 5.312 17.104 3.856 22.4-3.2 5.312-7.072 3.872-17.104-3.2-22.4l-191.995-143.996c-2.88-2.176-6.256-3.2-9.584-3.2zM1008.008 783.98c-1.056 0-2.144 0.096-3.216 0.336l-703.976 143.996c-8.672 1.76-14.24 10.224-12.464 18.88 1.76 8.672 10.192 14.32 18.88 12.464l703.978-143.996c8.672-1.76 14.24-10.224 12.464-18.88-1.554-7.584-8.226-12.8-15.666-12.8zM863.996 559.988c-84.781 0-143.996 72.365-143.996 175.995 0 8.832 7.168 16 16 16s16-7.168 16-16c0-84.781 46.047-143.996 111.996-143.996 70.573 0 127.996 64.605 127.996 143.996 0 8.832 7.168 16 16 16s16-7.168 16-16c0-97.052-71.773-175.995-159.995-175.995zM736 399.993c-8.832 0-16 7.168-16 16v319.991c0 8.832 7.168 16 16 16s16-7.168 16-16v-319.991c0-8.848-7.168-16-16-16zM768 335.996h-63.997c-7.344 0-13.744 5.008-15.52 12.112l-16 63.997c-1.2 4.784-0.112 9.84 2.912 13.728s7.68 6.16 12.608 6.16h95.996c4.928 0 9.584-2.272 12.608-6.16s4.112-8.944 2.912-13.728l-16-63.997c-1.776-7.12-8.176-12.112-15.52-12.112zM716.497 367.995h39.007l8 31.999h-55.007l8-31.999zM761.68 243.359c-7.424 0-14.832 2.16-21.248 6.448l-13.312 8.88c-7.344 4.896-9.328 14.832-4.432 22.192s14.816 9.36 22.192 4.432l13.312-8.88c2.752-1.824 5.232-0.976 6.48-0.32 1.248 0.672 3.328 2.272 3.328 5.568 0 3.488-2.832 6.32-6.32 6.32h-9.68c-17.648 0-31.999 14.352-31.999 31.999v31.999c0 8.832 7.168 16 16 16s16-7.168 16-16v-31.999h9.68c21.12 0 38.319-17.184 38.319-38.319 0-14.16-7.744-27.088-20.224-33.775-5.68-3.040-11.904-4.544-18.096-4.544zM959.993-15.992h-447.985c-17.648 0-31.999 14.352-31.999 31.999v223.992c0 17.648 14.352 31.999 31.999 31.999h447.985c17.648 0 31.999-14.352 31.999-31.999v-223.992c0-17.648-14.352-31.999-31.999-31.999zM512.008 239.999v-223.992h448.001l-0.016 223.992h-447.985zM895.996 48.005c-8.832 0-16 7.168-16 16v127.996c0 8.832 7.168 16 16 16s16-7.168 16-16v-127.996c0-8.848-7.168-16-16-16zM815.999 48.005c-8.832 0-16 7.168-16 16v127.996c0 8.832 7.168 16 16 16s16-7.168 16-16v-127.996c-0.002-8.848-7.168-16-16-16zM736 48.005c-8.832 0-16 7.168-16 16v127.996c0 8.832 7.168 16 16 16s16-7.168 16-16v-127.996c0-8.848-7.168-16-16-16zM656.004 48.005c-8.832 0-16 7.168-16 16v127.996c0 8.832 7.168 16 16 16s16-7.168 16-16v-127.996c0-8.848-7.168-16-16-16zM576.005 48.005c-8.832 0-16 7.168-16 16v127.996c0 8.832 7.168 16 16 16s16-7.168 16-16v-127.996c0-8.848-7.168-16-16-16zM416.012-63.991h-319.991c-8.832 0-16 7.168-16 16v47.999c0 17.648 14.352 31.999 31.999 31.999h287.991c17.648 0 31.999-14.352 31.999-31.999v-47.999c0-8.848-7.168-16-16-16zM112.021-31.992h287.991v31.999h-287.991v-31.999zM303.999 176.001c-3.040 0-6.128 0.864-8.864 2.688l-95.996 63.999c-7.344 4.896-9.328 14.832-4.432 22.192s14.816 9.36 22.192 4.432l95.996-63.997c7.344-4.896 9.328-14.832 4.432-22.192-3.088-4.626-8.16-7.122-13.328-7.122zM208.033 287.997c-5.168 0-10.24 2.496-13.328 7.12-4.896 7.344-2.912 17.296 4.432 22.192l95.996 63.999c7.328 4.912 17.28 2.912 22.192-4.432 4.896-7.344 2.912-17.296-4.432-22.192l-95.996-63.999c-2.736-1.824-5.824-2.688-8.864-2.688zM303.999 399.993c-3.040 0-6.128 0.864-8.864 2.688l-95.998 63.999c-7.344 4.896-9.328 14.832-4.432 22.192s14.816 9.36 22.192 4.432l95.996-63.997c7.344-4.896 9.328-14.832 4.432-22.192-3.086-4.626-8.158-7.122-13.326-7.122zM208.033 511.991c-5.168 0-10.24 2.496-13.328 7.12-4.896 7.344-2.912 17.296 4.432 22.192l95.996 63.997c7.328 4.928 17.28 2.928 22.192-4.432 4.896-7.344 2.912-17.296-4.432-22.192l-95.996-63.999c-2.736-1.824-5.824-2.686-8.864-2.686zM303.999 623.987c-3.040 0-6.128 0.864-8.864 2.688l-95.996 63.999c-7.344 4.896-9.328 14.832-4.432 22.192s14.816 9.344 22.192 4.432l95.996-63.999c7.344-4.896 9.328-14.832 4.432-22.192-3.088-4.624-8.16-7.12-13.328-7.12z" />
<glyph unicode="&#xe909;" glyph-name="cross-out" d="M1024 927.363l-32.637 32.637-479.363-479.363-479.363 479.363-32.637-32.637 479.363-479.363-479.363-479.363 32.637-32.637 479.363 479.363 479.363-479.363 32.637 32.637-479.363 479.363 479.363 479.363z" />
<glyph unicode="&#xe90a;" glyph-name="down" horiz-adv-x="1891" d="M1813.512 959.92l77.647-77.647-945.506-946.193-945.506 946.193 77.647 77.647 868.546-867.859z" />
<glyph unicode="&#xe90b;" glyph-name="email" horiz-adv-x="1502" d="M1386.457-62.577h-1270.818c-63.799 0.128-115.475 51.843-115.54 115.645v789.971c0.127 63.76 51.78 115.412 115.526 115.54h1270.83c63.807-0.063 115.523-51.741 115.651-115.526v-789.977c-0.063-63.807-51.741-115.523-115.526-115.651h-0.012zM63.020 5.828c13.015-14.525 31.831-23.623 52.772-23.623 0.025 0 0.050 0 0.075 0h1270.59c20.815 0.004 39.525 9.010 52.453 23.336l0.055 0.062-566.723 415.806-108.038-78.929c-3.652-2.695-8.242-4.313-13.211-4.313s-9.559 1.618-13.272 4.356l0.061-0.043-108.71 78.929zM910.306 449.175l546.907-401.364c0 1.791 0 3.471 0 5.262v789.965c0 1.791 0 3.583 0 5.374zM44.883 845.949c0-1.008 0-1.903 0-2.911v-789.965c0-1.568 0-3.247 0-4.702l546.124 400.805zM61.789 889.053l689.204-500.669 687.972 502.125c-12.997 14.327-31.687 23.287-52.471 23.287-0.013 0-0.026 0-0.039 0h-1270.816c-0.014 0-0.031 0-0.048 0-21.48 0-40.728-9.557-53.725-24.65l-0.078-0.093zM61.789 889.053" />
<glyph unicode="&#xe90c;" glyph-name="engineer" d="M924.507 154.442c-11.082 66.543-57.74 121.146-121.757 142.485l-142.105 47.368v21.124h-33.032v-30.984l-24.659-98.618-66.709 80.054h-48.508l-66.709-80.054-24.642 98.618v30.984h-33.032v-21.124l-142.105-47.368c-64-21.339-110.658-75.941-121.757-142.485l-36.418-218.442h897.85l-36.418 218.442zM619.239 164.699l36.6 146.382 136.473-45.502c52.373-17.458 90.541-62.134 99.625-116.587l19.241-115.497-108.544-13.576-9.943 99.411-32.867-3.287 14.699-146.994h-182.14l-30.109 210.795 19.704 29.564 37.26-44.709zM231.688 265.579l136.473 45.502 36.6-146.382 37.244 44.693 19.704-29.564-30.092-210.795h-182.14l14.699 146.994-32.867 3.287-9.943-99.378-108.544 13.576 19.241 115.497c9.084 54.437 47.253 99.113 99.625 116.571zM107.388 0.908l110.691-13.841-1.8-18.036h-114.193l5.302 31.876zM464.979-30.968l31.232 218.624-32.14 48.211 39.143 46.972h17.557l39.143-46.972-32.14-48.211 31.249-218.624h-94.043zM807.721-30.968l-1.8 18.036 110.691 13.841 5.302-31.876h-114.193zM250.071 648.506c-11.594-14.22-18.845-32.124-18.845-51.861 0-42.38 32.206-76.998 73.365-81.656 8.423-28.986 23.981-55.56 45.915-77.494l64.413-64.413c15.591-15.591 36.319-24.18 58.385-24.18h77.411c22.049 0 42.793 8.588 58.385 24.18l64.413 64.413c21.933 21.933 37.492 48.524 45.915 77.494 41.142 4.658 73.348 39.275 73.348 81.656 0 19.737-7.251 37.64-18.845 51.861 20.381 6.144 35.361 24.873 35.361 47.236 0 27.318-22.231 49.548-49.548 49.548h-2.345c-13.163 97.495-84.315 179.068-179.332 205.411v9.299h-132.129v-9.299c-95.017-26.343-166.185-107.933-179.332-205.411h-2.345c-27.318 0-49.548-22.231-49.548-49.548 0-22.363 14.98-41.092 35.361-47.236zM264.258 596.645c0 21.504 13.857 39.672 33.032 46.509v-77.196c0-5.401 0.314-10.752 0.776-16.070-19.572 6.623-33.809 24.972-33.809 46.757zM650.141 460.85l-64.413-64.413c-9.216-9.216-21.983-14.501-35.031-14.501h-77.411c-13.048 0-25.798 5.285-35.031 14.501l-64.413 64.413c-28.077 28.077-43.537 65.404-43.537 105.109v80.235h363.355v-80.235c0.017-39.705-15.443-77.031-43.52-105.109zM725.933 549.905c0.462 5.302 0.776 10.653 0.776 16.054v77.196c19.175-6.838 33.032-25.005 33.032-46.509 0-21.785-14.237-40.134-33.809-46.741zM445.935 916.298v-137.976h33.032v148.645h66.065v-148.645h33.032v137.976c76.552-24.824 133.682-91.483 146.102-171.008h-424.332c12.42 79.525 69.549 146.184 146.102 171.008zM264.258 712.258h495.484c9.1 0 16.516-7.416 16.516-16.516s-7.416-16.516-16.516-16.516h-495.484c-9.1 0-16.516 7.416-16.516 16.516s7.416 16.516 16.516 16.516zM611.097 811.355h33.032v-33.032h-33.032v33.032zM379.871 811.355h33.032v-33.032h-33.032v33.032z" />
<glyph unicode="&#xe90d;" glyph-name="engineering" horiz-adv-x="885" d="M263.896 438.422c-3.485 3.483-8.733 4.522-13.291 2.64-4.555-1.895-7.522-6.331-7.522-11.268v-216.35c0-6.73 5.455-12.196 12.188-12.196h216.35c4.934 0 9.384 2.976 11.266 7.533 1.895 4.555 0.845 9.794-2.64 13.28l-216.35 216.361zM267.467 225.632v174.735l174.726-174.735h-174.726zM879.136 870.232l-63.39 63.39c-4.763 4.763-12.479 4.752-17.242 0l-366.332-366.335c-1.169-1.169-2.089-2.574-2.707-4.112l-40.152-100.827-161.577 161.588 28.995 28.992c4.763 4.763 4.763 12.479 0 17.242-4.76 4.763-12.479 4.763-17.239 0l-28.995-28.995-48.639 48.639v243.331c0 6.733-5.467 12.188-12.196 12.188h-139.769c-6.73 0-12.185-5.455-12.185-12.188v-970.824c0-6.733 5.455-12.199 12.185-12.199h139.769c6.73 0 12.196 5.467 12.196 12.199v133.316h559.697l34.038-34.038c2.38-2.383 5.497-3.572 8.625-3.572 3.117 0 6.234 1.189 8.617 3.572 4.76 4.76 4.76 12.479 0 17.239l-364.971 364.96 100.827 40.152c1.535 0.618 2.943 1.537 4.112 2.707l366.335 366.332c2.283 2.286 3.572 5.392 3.572 8.617 0 3.236-1.288 6.342-3.572 8.625v0zM137.473-25.493h-115.381v21.7h20.94c6.733 0 12.188 5.455 12.188 12.188 0 6.73-5.455 12.185-12.188 12.185h-20.94v38.387h20.94c6.733 0 12.188 5.455 12.188 12.188s-5.455 12.196-12.188 12.196h-20.94v38.379h20.94c6.733 0 12.188 5.455 12.188 12.185 0 6.733-5.455 12.188-12.188 12.188h-20.94v38.387h20.94c6.733 0 12.188 5.455 12.188 12.188 0 6.73-5.455 12.196-12.188 12.196h-20.94v38.377h20.94c6.733 0 12.188 5.455 12.188 12.188s-5.455 12.185-12.188 12.185h-20.94v38.391h20.94c6.733 0 12.188 5.455 12.188 12.185 0 6.733-5.455 12.199-12.188 12.199h-20.94v38.377h20.94c6.733 0 12.188 5.455 12.188 12.188 0 6.73-5.455 12.196-12.188 12.196h-20.94v38.379h20.94c6.733 0 12.188 5.453 12.188 12.185s-5.455 12.196-12.188 12.196h-20.94v38.379h20.94c6.733 0 12.188 5.455 12.188 12.185 0 6.733-5.455 12.199-12.188 12.199h-20.94v38.377h20.94c6.733 0 12.188 5.455 12.188 12.188 0 6.73-5.455 12.196-12.188 12.196h-20.94v38.379h20.94c6.733 0 12.188 5.453 12.188 12.185s-5.455 12.196-12.188 12.196h-20.94v38.379h20.94c6.733 0 12.188 5.455 12.188 12.185 0 6.733-5.455 12.199-12.188 12.199h-20.94v38.377h20.94c6.733 0 12.188 5.455 12.188 12.188 0 6.741-5.455 12.196-12.188 12.196h-20.94v38.379h20.94c6.733 0 12.188 5.453 12.188 12.185s-5.455 12.196-12.188 12.196h-20.94v38.379h20.94c6.733 0 12.188 5.455 12.188 12.185 0 6.744-5.455 12.199-12.188 12.199h-20.94v21.689h115.381v-946.442zM161.847 120.022v535.312l59.331-59.323-34.686-34.686c-4.763-4.763-4.763-12.479 0-17.242 2.38-2.38 5.497-3.572 8.625-3.572 3.117 0 6.234 1.191 8.614 3.572l34.689 34.689 27.144-27.144-34.689-34.689c-4.76-4.76-4.76-12.476 0-17.239 2.383-2.383 5.5-3.572 8.617-3.572 3.128 0 6.245 1.189 8.625 3.572l34.686 34.686 27.133-27.133-34.686-34.686c-4.763-4.763-4.763-12.479 0-17.242 2.38-2.38 5.497-3.572 8.625-3.572 3.117 0 6.234 1.191 8.617 3.572l34.686 34.689 27.144-27.144-34.689-34.689c-4.76-4.76-4.76-12.479 0-17.239 2.383-2.383 5.5-3.572 8.617-3.572 3.128 0 6.245 1.189 8.625 3.572l34.689 34.686 27.133-27.133-34.689-34.686c-4.763-4.763-4.763-12.479 0-17.242 2.38-2.38 5.497-3.572 8.625-3.572 3.117 0 6.234 1.191 8.617 3.572l34.686 34.689 27.144-27.144-34.686-34.689c-4.763-4.763-4.763-12.479 0-17.242 2.38-2.38 5.497-3.572 8.614-3.572 3.128 0 6.245 1.191 8.625 3.572l34.689 34.689 27.133-27.133-34.689-34.689c-4.763-4.76-4.763-12.476 0-17.239 2.383-2.383 5.5-3.572 8.625-3.572 3.117 0 6.234 1.189 8.617 3.572l34.686 34.686 27.144-27.144-34.686-34.686c-4.763-4.763-4.763-12.479 0-17.242 2.38-2.38 5.497-3.572 8.614-3.572s6.245 1.191 8.625 3.572l34.689 34.689 27.133-27.133-34.689-34.689c-4.76-4.76-4.76-12.479 0-17.239 2.383-2.383 5.5-3.572 8.628-3.572 3.117 0 6.234 1.189 8.614 3.572l34.689 34.686 27.141-27.144-34.686-34.686c-4.763-4.763-4.763-12.479 0-17.242 2.38-2.38 5.497-3.572 8.614-3.572 3.128 0 6.245 1.191 8.628 3.572l34.686 34.689 59.32-59.32-535.312-0.011zM489.727 526.975l303.138 303.128 14.449-14.449-303.128-303.128-14.46 14.449zM472.485 544.214l-14.446 14.449 303.128 303.138 14.46-14.46-303.141-303.128zM445.266 536.952l37.199-37.199-61.811-24.612 24.612 61.811zM824.556 832.895l-46.151 46.148 28.727 28.713 46.137-46.148-28.713-28.713zM277.89 679.143c3.117 0 6.234 1.191 8.614 3.572l37.62 37.612c4.763 4.76 4.763 12.479 0 17.239-4.76 4.763-12.487 4.763-17.239 0l-37.62-37.62c-4.763-4.752-4.763-12.479 0-17.239 2.38-2.372 5.508-3.563 8.625-3.563v0z" />
<glyph unicode="&#xe90e;" glyph-name="engineering-services" d="M1018.759 25.892l-266.358 266.358c-2.953 2.95-7.033 4.775-11.537 4.775s-8.583-1.824-11.537-4.775v0l-19.237-19.237-38.72 38.747c63.605 68.665 102.623 160.898 102.623 262.244 0 213.392-172.989 386.381-386.381 386.381-107.111 0-204.042-43.584-274.028-113.985l-0.019-0.019c-70.42-70.003-114.004-166.935-114.004-274.046 0-213.392 172.989-386.381 386.381-386.381 101.346 0 193.579 39.018 262.496 102.853l-0.252-0.23 38.747-38.72-19.237-19.237c-2.958-2.955-4.788-7.039-4.788-11.551s1.83-8.595 4.788-11.551v0l266.358-266.358c2.953-2.95 7.033-4.775 11.537-4.775s8.583 1.824 11.537 4.775v0l61.577 61.577c2.95 2.953 4.775 7.033 4.775 11.537s-1.824 8.583-4.775 11.537v0zM136.693 323.025c-64.016 64.016-103.612 152.455-103.612 250.142 0 195.372 158.381 353.753 353.753 353.753 97.687 0 186.124-39.595 250.142-103.612v0c64.016-64.016 103.612-152.455 103.612-250.142 0-195.372-158.381-353.753-353.753-353.753-97.687 0-186.124 39.595-250.142 103.612v0zM945.645-24.147l-243.176 243.285 38.393 38.393 243.285-243.285zM386.834 654.796c-45.083 0-81.63-36.547-81.63-81.63s36.547-81.63 81.63-81.63c45.083 0 81.63 36.547 81.63 81.63v0c0 45.083-36.547 81.63-81.63 81.63v0zM386.834 524.188c-27.050 0-48.978 21.929-48.978 48.978s21.929 48.978 48.978 48.978c27.050 0 48.978-21.929 48.978-48.978v0c0-27.050-21.929-48.978-48.978-48.978v0zM519.428 636.483l38.611 38.611c2.947 2.953 4.771 7.031 4.771 11.533 0 3.553-1.135 6.841-3.062 9.522l0.033-0.049c-13.975 19.49-30.522 36.037-49.376 49.578l-0.635 0.435c-2.632 1.894-5.92 3.029-9.473 3.029-4.503 0-8.579-1.823-11.534-4.771v0l-38.611-38.611c-3.743 1.87-8.476 3.882-13.332 5.64l-1.007 0.319v54.638c0 0.003 0 0.007 0 0.011 0 8.056-5.834 14.748-13.507 16.084l-0.098 0.014c-10.635 1.903-22.877 2.991-35.373 2.991s-24.738-1.088-36.637-3.175l1.264 0.184c-7.771-1.35-13.605-8.042-13.605-16.098 0-0.004 0-0.008 0-0.011v0.001-54.638c-5.863-2.077-10.597-4.088-15.195-6.336l0.854 0.378-38.611 38.611c-2.953 2.947-7.031 4.771-11.533 4.771-3.553 0-6.841-1.135-9.522-3.062l0.049 0.033c-19.49-13.975-36.037-30.522-49.578-49.376l-0.435-0.635c-1.887-2.629-3.018-5.911-3.018-9.457 0-4.511 1.829-8.594 4.787-11.549v0l38.584-38.611c-1.875-3.749-3.887-8.483-5.643-13.339l-0.316-1h-54.638c-0.003 0-0.007 0-0.011 0-8.056 0-14.748-5.834-16.084-13.507l-0.014-0.098c-1.902-10.635-2.99-22.877-2.99-35.373s1.088-24.738 3.174-36.637l-0.184 1.264c1.35-7.771 8.042-13.605 16.098-13.605 0.004 0 0.008 0 0.011 0h54.637c2.077-5.863 4.088-10.597 6.336-15.195l-0.378 0.855-38.584-38.611c-2.957-2.955-4.787-7.039-4.787-11.549 0-3.547 1.131-6.829 3.051-9.506l-0.033 0.049c13.981-19.485 30.527-36.031 49.376-49.577l0.635-0.435c2.632-1.894 5.92-3.029 9.473-3.029 4.503 0 8.579 1.823 11.534 4.771v0l38.611 38.611c3.743-1.87 8.476-3.882 13.332-5.64l1.007-0.319v-54.638c0.008-8.049 5.84-14.733 13.507-16.067l0.098-0.014c10.635-1.902 22.877-2.99 35.373-2.99s24.738 1.088 36.637 3.174l-1.264-0.184c7.765 1.349 13.597 8.033 13.605 16.080v54.639c5.842 2.062 10.577 4.073 15.171 6.327l-0.831-0.369 38.611-38.611c2.953-2.947 7.031-4.771 11.533-4.771 3.553 0 6.841 1.135 9.522 3.062l-0.049-0.033c19.49 13.975 36.037 30.522 49.578 49.376l0.435 0.635c1.894 2.632 3.029 5.92 3.029 9.473 0 4.503-1.823 8.579-4.771 11.534v0l-38.611 38.611c1.883 3.751 3.903 8.484 5.669 13.34l0.318 0.999h54.611c8.049 0.008 14.733 5.84 16.067 13.507l0.014 0.098c1.903 10.635 2.991 22.877 2.991 35.373s-1.088 24.738-3.175 36.637l0.184-1.264c-1.349 7.765-8.033 13.597-16.080 13.605h-54.612c-2.099 5.877-4.118 10.611-6.371 15.21l0.385-0.87zM566.42 573.166c0-5.442-0.245-10.884-0.762-16.326h-52.325c0 0-0.001 0-0.001 0-7.566 0-13.931-5.146-15.782-12.13l-0.026-0.114c-2.936-11.172-7.129-20.967-12.53-29.953l0.286 0.513c-1.426-2.375-2.268-5.239-2.268-8.302 0-4.503 1.823-8.58 4.772-11.535v0l37.005-37.033c-7.074-8.448-14.626-16.001-22.793-22.845l-0.282-0.23-37.033 37.005c-2.955 2.958-7.040 4.789-11.551 4.789-3.055 0-5.914-0.839-8.36-2.3l0.075 0.041c-8.474-5.121-18.27-9.314-28.653-12.066l-0.789-0.178c-7.098-1.877-12.244-8.242-12.244-15.808 0-0.001 0-0.001 0-0.002v0-52.352c-4.894-0.483-10.578-0.757-16.326-0.757s-11.433 0.275-17.040 0.812l0.714-0.055v52.325c0 0 0 0.001 0 0.001 0 7.566-5.146 13.931-12.13 15.782l-0.114 0.026c-11.171 2.93-20.967 7.123-29.951 12.529l0.51-0.285c-2.371 1.419-5.229 2.258-8.285 2.258-4.512 0-8.596-1.83-11.551-4.789v0l-37.033-37.005c-8.448 7.074-16.001 14.626-22.845 22.793l-0.23 0.282 37.005 37.005c2.954 2.954 4.782 7.036 4.782 11.544 0 3.069-0.847 5.941-2.32 8.393l0.041-0.074c-5.121 8.474-9.314 18.27-12.066 28.652l-0.178 0.789c-1.877 7.098-8.242 12.244-15.808 12.244-0.001 0-0.001 0-0.002 0h-52.325c-0.517 5.442-0.762 10.884-0.762 16.326s0.245 10.884 0.762 16.326h52.325c0 0 0.001 0 0.001 0 7.566 0 13.931 5.146 15.782 12.13l0.026 0.114c2.932 11.172 7.126 20.967 12.53 29.952l-0.285-0.512c1.426 2.375 2.268 5.239 2.268 8.302 0 4.503-1.823 8.58-4.772 11.535v0l-37.005 37.005c7.074 8.448 14.626 16.001 22.793 22.845l0.282 0.23 37.033-37.005c2.953-2.948 7.031-4.772 11.534-4.772 3.062 0 5.928 0.843 8.377 2.31l-0.074-0.041c8.474 5.11 18.269 9.303 28.647 12.064l0.794 0.18c7.098 1.877 12.244 8.242 12.244 15.808 0 0.001 0 0.001 0 0.002v0 52.38c4.894 0.488 10.578 0.765 16.326 0.765s11.432-0.278 17.038-0.821l-0.712 0.056v-52.325c0 0 0-0.001 0-0.001 0-7.566 5.146-13.931 12.13-15.782l0.114-0.026c11.171-2.93 20.967-7.123 29.951-12.529l-0.51 0.285c2.375-1.426 5.239-2.268 8.302-2.268 4.503 0 8.58 1.823 11.535 4.772v0l37.005 37.033c8.45-7.078 16.003-14.64 22.844-22.818l0.231-0.284-37.005-37.005c-2.948-2.953-4.772-7.031-4.772-11.534 0-3.062 0.843-5.928 2.31-8.377l-0.041 0.074c5.11-8.474 9.303-18.269 12.064-28.647l0.18-0.794c1.877-7.098 8.242-12.244 15.808-12.244 0.001 0 0.001 0 0.002 0h52.325c0.517-5.442 0.762-10.884 0.762-16.326zM621.466 758.983c-3.017 3.778-7.622 6.178-12.789 6.178-9.017 0-16.327-7.31-16.327-16.327 0-3.851 1.333-7.39 3.563-10.182l-0.025 0.033c35.894-45.020 57.595-102.739 57.595-165.527 0-147.271-119.386-266.658-266.658-266.658s-266.658 119.386-266.658 266.658c0 147.271 119.386 266.658 266.658 266.658 62.787 0 120.507-21.701 166.067-58.011l-0.54 0.416c2.759-2.205 6.298-3.538 10.149-3.538 9.017 0 16.327 7.31 16.327 16.327 0 5.166-2.4 9.771-6.145 12.764l-0.033 0.025c-50.537 40.303-115.336 64.671-185.825 64.671-165.304 0-299.309-134.005-299.309-299.309s134.005-299.309 299.309-299.309c165.304 0 299.309 134.005 299.309 299.309 0 70.489-24.366 135.286-65.136 186.429l0.466-0.605z" />
<glyph unicode="&#xe90f;" glyph-name="envelope" horiz-adv-x="885" d="M776.467 783.33h-668.738c-59.7 0-108.224-48.523-108.224-108.224v-457.057c0-59.691 48.523-108.214 108.224-108.214h668.551c59.7 0 108.226 48.523 108.226 108.214v456.878c0.178 59.691-48.345 108.402-108.038 108.402v0zM835.247 218.050c0-32.411-26.366-58.78-58.78-58.78h-668.738c-32.411 0-58.778 26.369-58.778 58.78v456.878c0 32.411 26.366 58.778 58.778 58.778h668.551c32.414 0 58.78-26.366 58.78-58.778v-456.878h0.188zM557.642 452.255l216.438 194.105c10.078 9.156 10.989 24.723 1.833 34.977-9.156 10.069-24.723 10.98-34.968 1.824l-298.483-267.896-58.235 52.012c-0.178 0.178-0.357 0.357-0.357 0.545-1.289 1.28-2.566 2.378-4.033 3.479l-236.949 212.048c-10.257 9.156-25.824 8.245-34.98-2.012-9.156-10.254-8.233-25.821 2.012-34.977l219.015-195.748-218.093-204.174c-9.891-9.344-10.444-24.908-1.101-34.977 4.944-5.122 11.534-7.876 18.124-7.876 6.045 0 12.088 2.2 16.854 6.599l221.384 207.095 60.057-53.646c4.766-4.212 10.623-6.224 16.489-6.224 5.855 0 11.9 2.191 16.478 6.402l61.712 55.301 220.105-209.116c4.757-4.578 10.98-6.778 17.023-6.778 6.59 0 13.001 2.566 17.945 7.698 9.344 9.879 8.977 25.634-0.911 34.968l-217.36 206.371z" />
<glyph unicode="&#xe910;" glyph-name="facebook" d="M896 960h-768c-70.592 0-128-57.408-128-128v-768c0-70.592 57.408-128 128-128h384v352h-128v160h128v128c0 106.048 85.952 192 192 192h128v-160h-64c-35.328 0-64 3.328-64-32v-128h160l-64-160h-96v-352h192c70.592 0 128 57.408 128 128v768c0 70.592-57.408 128-128 128z" />
<glyph unicode="&#xe911;" glyph-name="facebooke" d="M683.999-63.995h-212.898l1.7 337.997h-141.998v212.858h141.998v88.699c0 118.878 92.259 219.998 211.118 230.638h196.938v-212.878h-177.419c-10.64 0-17.739-7.1-17.739-17.739v-88.699h177.419v-212.878h-177.419zM512-29.856h136.539v341.317h170.658v136.539h-170.658v119.459c-0.005 0.276-0.009 0.602-0.009 0.928 0 27.769 22.511 50.279 50.279 50.279 0.327 0 0.652-0.003 0.978-0.009l-0.048 0.001h136.539v136.539h-153.598c-95.579-8.54-170.678-90.459-170.678-187.739v-119.459h-136.539v-136.539h136.539zM938.656-63.995h-853.311c-0.251-0.003-0.547-0.004-0.845-0.004-46.667 0-84.499 37.832-84.499 84.499 0 0.297 0.002 0.594 0.005 0.89v-0.045 853.311c-0.003 0.251-0.004 0.547-0.004 0.845 0 46.667 37.832 84.499 84.499 84.499 0.297 0 0.594-0.002 0.89-0.005h853.266c0.251 0.003 0.547 0.004 0.845 0.004 46.667 0 84.499-37.832 84.499-84.499 0-0.297-0.002-0.594-0.005-0.89v0.045-853.311c0.003-0.251 0.004-0.547 0.004-0.845 0-46.667-37.832-84.499-84.499-84.499-0.297 0-0.594 0.002-0.89 0.005h0.045zM95.044 914.996c-0.258 0.005-0.562 0.008-0.868 0.008-27.139 0-49.139-22-49.139-49.139 0-0.305 0.003-0.61 0.008-0.913l-0.001 0.045v-833.992c-0.005-0.258-0.008-0.562-0.008-0.868 0-27.139 22-49.139 49.139-49.139 0.305 0 0.61 0.003 0.913 0.008l-0.045-0.001h833.992c0.258-0.005 0.562-0.008 0.868-0.008 27.139 0 49.139 22 49.139 49.139 0 0.305-0.003 0.61-0.008 0.913l0.001-0.045v833.992c0.005 0.258 0.008 0.562 0.008 0.868 0 27.139-22 49.139-49.139 49.139-0.305 0-0.61-0.003-0.913-0.008l0.045 0.001z" />
<glyph unicode="&#xe912;" glyph-name="file" d="M213.333 550.4h426.667c9.421 0 17.067 7.646 17.067 17.067s-7.646 17.067-17.067 17.067h-426.667c-9.421 0-17.067-7.646-17.067-17.067s7.646-17.067 17.067-17.067zM213.333 686.933h170.667c9.421 0 17.067 7.646 17.067 17.067s-7.646 17.067-17.067 17.067h-170.667c-9.421 0-17.067-7.646-17.067-17.067s7.646-17.067 17.067-17.067zM213.333 413.867h426.667c9.421 0 17.067 7.646 17.067 17.067s-7.646 17.067-17.067 17.067h-426.667c-9.421 0-17.067-7.646-17.067-17.067s7.646-17.067 17.067-17.067zM503.467 311.467h-290.133c-9.421 0-17.067-7.646-17.067-17.067s7.646-17.067 17.067-17.067h290.133c9.421 0 17.067 7.646 17.067 17.067s-7.646 17.067-17.067 17.067zM452.267 174.933h-238.933c-9.421 0-17.067-7.646-17.067-17.067s7.646-17.067 17.067-17.067h238.933c9.421 0 17.067 7.646 17.067 17.067s-7.646 17.067-17.067 17.067zM827.733 373.538v337.527l-248.934 248.934h-553.199v-1024h750.933c122.334 0 221.867 99.533 221.867 221.867 0 104.687-72.977 192.461-170.667 215.671zM588.8 901.734l180.668-180.668h-180.668v180.668zM658.398-29.867h-598.665v955.733h494.933v-238.933h238.933v-307.951c-5.837 0.495-11.503 0.751-17.067 0.751-122.334 0-221.867-99.533-221.867-221.867 0-6.81 0.427-13.517 1.024-20.19 0.137-1.553 0.29-3.089 0.461-4.642 0.734-6.519 1.673-12.971 2.953-19.302 0.154-0.751 0.358-1.485 0.512-2.236 1.229-5.769 2.714-11.435 4.386-17.033 0.427-1.399 0.819-2.816 1.263-4.198 1.929-6.007 4.079-11.913 6.485-17.698 0.461-1.092 0.973-2.15 1.434-3.226 2.202-5.052 4.591-9.984 7.151-14.831 0.614-1.161 1.195-2.338 1.826-3.499 2.987-5.41 6.195-10.684 9.626-15.821 0.785-1.178 1.604-2.304 2.406-3.465 3.123-4.506 6.4-8.892 9.83-13.141 0.649-0.802 1.263-1.638 1.929-2.441 3.942-4.745 8.107-9.284 12.425-13.67 1.058-1.075 2.133-2.116 3.226-3.174 4.181-4.079 8.465-8.038 12.954-11.776 0.393-0.341 0.768-0.7 1.178-1.024 4.813-3.959 9.847-7.663 15.002-11.23 1.246-0.87 2.509-1.707 3.772-2.543 1.314-0.836 2.577-1.758 3.891-2.594zM776.533-29.867c-103.509 0-187.733 84.224-187.733 187.733s84.224 187.733 187.733 187.733c5.325 0 10.581-0.358 15.804-0.802 4.966-0.478 10.103-1.126 15.514-2.031l7.561-1.263c84.907-17.971 148.855-93.457 148.855-183.637 0-103.509-84.224-187.733-187.733-187.733zM864.922 252.945l-95.505-137.216-67.396 55.33c-7.27 5.99-18.039 4.915-24.013-2.372-5.99-7.287-4.932-18.039 2.372-24.013l81.681-67.055c3.072-2.509 6.895-3.874 10.82-3.874 0.768 0 1.553 0.051 2.338 0.154 4.71 0.666 8.943 3.243 11.674 7.151l106.052 152.388c5.376 7.731 3.482 18.381-4.267 23.757-7.748 5.41-18.364 3.482-23.757-4.25z" />
<glyph unicode="&#xe913;" glyph-name="folder" d="M1018.765 560.063c-4.119 4.803-10.136 7.572-16.494 7.572h-45.123v243.268c0 16.665-13.554 30.219-30.219 30.219h-524.139l-42.474 70.777c-5.418 9.059-15.349 14.682-25.912 14.682h-235.834c-16.648-0.017-30.202-13.571-30.202-30.219v-328.711h-46.661c-6.324 0-12.323-2.752-16.443-7.538-4.136-4.786-5.982-11.127-5.025-17.434l84.040-554.698c1.555-10.563 10.785-18.545 21.485-18.545h812.443c10.7 0 19.929 7.982 21.468 18.476l84.058 554.698c0.974 6.273-0.838 12.631-4.974 17.451zM102.556 892.379h229.612l42.474-70.777c5.418-9.059 15.349-14.682 25.912-14.682h522.413v-239.286h-17.092v68.367h-17.092v51.275h-17.092v51.275h-717.858v-51.275h-17.092v-51.275h-17.092v-68.367h-17.092v324.745zM153.832 601.818h717.858v-34.184h-717.858v34.184zM170.924 653.094h683.674v-17.092h-683.674v17.092zM837.506 687.278h-649.49v17.092h649.49v-17.092zM907.497 3.604h-791.010l-80.263 529.848h951.553l-80.28-529.848z" />
<glyph unicode="&#xe914;" glyph-name="industrial-plant" horiz-adv-x="885" d="M872.714 53.507h-862.689c-6.163 0-11.156 4.992-11.156 11.156v260.322c0 4.228 2.398 8.088 6.163 9.978l215.678 107.588c3.47 1.724 7.563 1.528 10.854-0.496 3.291-2.053 5.293-5.622 5.293-9.505v-89.544l199.53 99.544c3.447 1.724 7.563 1.528 10.854-0.496 3.269-2.030 5.271-5.622 5.271-9.482v-89.566l55.537 27.715v274.087c0 6.169 4.992 11.156 11.156 11.156h40.483c6.163 0 11.156-4.986 11.156-11.156v-242.779l52.681 26.277 9.281 402.028c0.134 6.057 5.076 10.894 11.156 10.894h97.264c6.057 0 10.999-4.836 11.156-10.894l10.151-440.268 105.19 52.486c3.47 1.724 7.563 1.528 10.854-0.496 3.291-2.030 5.293-5.622 5.293-9.482v-367.91c0-6.163-5.008-11.156-11.156-11.156v0zM21.181 75.818h840.378v338.716l-199.553-99.551c-1.634-0.803-3.335-1.177-5.165-1.177-2.008 0.045-4.228 0.524-6.080 1.679-3.269 2.025-5.271 5.622-5.271 9.477v89.377l-80.725-40.265c-0.067-0.045-0.128-0.089-0.217-0.106l-40.327-20.135c-0.022 0-0.067-0.022-0.089-0.045l-77.781-38.804c-3.47-1.718-7.563-1.545-10.854 0.502-3.291 2.025-5.293 5.622-5.293 9.477v89.572l-199.53-99.551c-3.463-1.718-7.563-1.545-10.854 0.502-3.269 2.025-5.271 5.622-5.271 9.477v89.55l-193.367-96.433v-242.261zM657.036 443.705c2.047 0 4.072-0.541 5.862-1.651 3.291-2.053 5.293-5.622 5.293-9.505v-89.349l72.27 36.060-10.151 439.655h-75.455l-8.757-379.154 5.556 2.789c1.634 0.808 3.442 1.2 5.187 1.155h0.196zM530.362 633.653v-251.821l18.172 9.064v242.757h-18.172zM473.385 131.032h-42.441c-6.146 0-11.156 4.986-11.156 11.156v63.117c0 6.169 5.008 11.156 11.156 11.156h42.441c6.169 0 11.156-4.986 11.156-11.156v-63.117c0-6.169-4.986-11.156-11.156-11.156v0zM442.1 153.343h20.13v40.806h-20.13v-40.806zM383.206 131.032h-42.441c-6.146 0-11.156 4.986-11.156 11.156v63.117c0 6.169 5.008 11.156 11.156 11.156h42.441c6.169 0 11.156-4.986 11.156-11.156v-63.117c0-6.169-4.986-11.156-11.156-11.156v0zM351.943 153.343h20.107v40.806h-20.107v-40.806zM293.026 131.032h-42.418c-6.169 0-11.156 4.986-11.156 11.156v63.117c0 6.169 4.986 11.156 11.156 11.156h42.418c6.169 0 11.156-4.986 11.156-11.156v-63.117c0-6.169-4.986-11.156-11.156-11.156v0zM261.763 153.343h20.107v40.806h-20.107v-40.806zM202.846 131.032h-42.418c-6.169 0-11.156 4.986-11.156 11.156v63.117c0 6.169 4.986 11.156 11.156 11.156h42.418c6.169 0 11.156-4.986 11.156-11.156v-63.117c0-6.169-4.986-11.156-11.156-11.156v0zM171.583 153.343h20.107v40.806h-20.107v-40.806zM112.666 131.032h-42.418c-6.169 0-11.156 4.986-11.156 11.156v63.117c0 6.169 4.986 11.156 11.156 11.156h42.418c6.169 0 11.156-4.986 11.156-11.156v-63.117c0-6.169-4.986-11.156-11.156-11.156v0zM81.403 153.343h20.107v40.806h-20.107v-40.806z" />
<glyph unicode="&#xe915;" glyph-name="instagram" d="M726.54-64h-429.080c-164.020 0-297.46 133.44-297.46 297.46v429.080c0 164.020 133.44 297.46 297.46 297.46h429.080c164.020 0 297.46-133.44 297.46-297.46v-429.080c0-164.020-133.44-297.46-297.46-297.46zM288.54 898c-125.053-0.137-226.392-101.469-226.54-226.506v-446.974c0.148-125.044 101.476-226.372 226.506-226.52h446.974c125.044 0.148 226.372 101.476 226.52 226.506v446.974c-0.148 125.044-101.476 226.372-226.506 226.52h-0.014zM512 172c-152.18 0-276 123.82-276 276s123.82 276 276 276 276-123.82 276-276-123.82-276-276-276zM512 664c-119.294 0-216-96.706-216-216s96.706-216 216-216c119.294 0 216 96.706 216 216v0c-0.137 119.239-96.762 215.864-215.987 216h-0.013zM832 728c0-22.091-17.909-40-40-40s-40 17.909-40 40c0 22.091 17.909 40 40 40s40-17.909 40-40z" />
<glyph unicode="&#xe916;" glyph-name="left" horiz-adv-x="554" d="M554.025-21.916l-42.044-42.044-511.96 511.96 511.96 511.96 42.044-42.044-469.916-470.289z" />
<glyph unicode="&#xe917;" glyph-name="light-bulb" d="M640 4.265h-273.067c-10.24 0-17.066 6.826-17.066 17.066v204.8c0 10.24 6.826 17.066 17.066 17.066h273.067c10.24 0 17.066-6.826 17.066-17.066v-204.8c0-10.238-6.826-17.066-17.066-17.066zM384 38.399h238.934v170.666h-238.934v-170.666zM529.066-64h-51.2c-22.186 0-40.96 10.24-54.614 27.306l-35.84 47.786c-3.414 5.12-5.12 11.946-1.706 17.066s8.534 10.24 15.36 10.24h204.8c6.826 0 11.946-3.414 15.36-10.24 3.414-5.12 1.706-11.946-1.706-17.066l-35.84-47.786c-11.946-17.066-32.426-27.306-54.614-27.306zM435.2 4.265l15.36-20.48c6.826-8.534 17.066-13.654 27.306-13.654h51.2c10.24 0 20.48 5.12 27.306 13.654l15.36 20.48h-136.532zM486.4 140.799h-119.466c-10.24 0-17.066 6.826-17.066 17.066s6.826 17.066 17.066 17.066h119.466c10.24 0 17.066-6.826 17.066-17.066s-6.826-17.066-17.066-17.066zM640 72.533h-119.466c-10.24 0-17.066 6.826-17.066 17.066s6.826 17.066 17.066 17.066h119.466c10.24 0 17.066-6.826 17.066-17.066s-6.826-17.066-17.066-17.066zM640 140.799h-68.266c-10.24 0-17.066 6.826-17.066 17.066s6.826 17.066 17.066 17.066h68.266c10.24 0 17.066-6.826 17.066-17.066s-6.826-17.066-17.066-17.066zM435.2 72.533h-68.266c-10.24 0-17.066 6.826-17.066 17.066s6.826 17.066 17.066 17.066h68.266c10.24 0 17.066-6.826 17.066-17.066s-6.826-17.066-17.066-17.066zM401.066 328.534c-3.414 0-5.12 0-8.534 1.706-6.826 3.414-10.24 13.654-6.826 20.48l76.8 199.68h-61.44c-6.826 0-11.946 3.414-15.36 8.534s-3.414 11.946 0 17.066l119.466 221.866c3.414 5.12 8.534 8.534 15.36 8.534h102.4c6.826 0 11.946-3.414 15.36-8.534s3.414-11.946 0-17.066l-71.68-128h73.388c6.826 0 11.946-3.414 15.36-10.24s1.706-13.654-1.706-18.774l-238.934-290.133c-3.414-3.414-8.534-5.12-13.654-5.12zM430.080 584.534h56.32c5.12 0 10.24-3.414 13.654-6.826 3.414-5.12 3.414-10.24 1.706-15.36l-47.786-122.88 150.186 179.2h-66.56c-6.826 0-11.946 3.414-15.36 8.534s-3.414 11.946 0 17.066l71.68 128h-63.146l-100.694-187.734zM640 209.066h-273.067c-8.534 0-15.36 5.12-17.066 13.654-10.24 46.080-37.546 93.866-80.214 134.826-78.506 75.094-117.76 182.614-105.814 291.841 17.066 160.426 146.774 290.135 307.201 308.907 10.24 0 20.48 1.706 32.426 1.706s22.186-1.706 32.426-1.706c160.426-17.066 290.135-146.774 307.201-308.907v0c11.946-109.226-27.306-215.040-105.814-291.841-42.666-40.96-71.68-88.746-80.214-134.826-1.704-8.534-8.53-13.654-17.064-13.654zM380.586 243.2h245.76c13.654 49.494 44.374 97.28 87.040 139.946 71.68 68.266 105.814 163.84 95.574 262.827v0c-15.36 145.066-133.12 261.121-278.187 278.187-8.534 0-17.066 1.706-27.306 1.706s-18.774-1.706-27.306-1.706c-145.066-17.066-261.121-133.12-278.187-278.187-10.24-98.986 23.894-194.56 95.574-262.827 42.664-42.666 73.384-90.452 87.036-139.946z" />
<glyph unicode="&#xe918;" glyph-name="linkedin" horiz-adv-x="1041" d="M147.38 679.161h-3.41c-34.242-1.705-70.21 13.701-95.866 39.378-25.263 24.822-40.958 59.312-41.083 97.468v0.024c0 35.947 13.701 70.21 41.083 97.572 25.677 25.677 59.919 39.378 97.572 39.378v0c0.352 0.003 0.768 0.005 1.185 0.005 37.331 0 70.974-15.79 94.614-41.056l0.067-0.073c25.677-25.677 41.083-59.919 39.378-95.866-0.102-38.209-15.801-72.731-41.063-97.552l-0.020-0.020c-25.697-25.637-58.214-39.257-92.456-39.257zM143.97 713.263c27.382-1.705 53.059 10.271 71.895 29.107 20.541 18.836 30.812 46.138 30.812 73.6 0.001 0.125 0.001 0.273 0.001 0.42 0 28.67-11.793 54.586-30.794 73.161l-0.019 0.019c-17.998 17.925-42.799 29.031-70.195 29.107h-0.015c-29.107 0-54.784-10.271-73.6-29.107-19.007-18.592-30.793-44.499-30.793-73.16 0-0.134 0-0.267 0.001-0.401v0.021c0-27.382 10.271-54.784 30.812-73.6 18.816-18.836 46.278-29.167 71.895-29.167zM212.435-57.039h-136.949c-27.342 0-51.414 24.072-51.414 51.414v599.13c0 29.107 22.246 51.353 49.648 51.353h138.715c27.382 0 51.353-23.972 51.353-51.353v-600.835c0-25.637-23.972-49.709-51.353-49.709zM73.78 610.616c-8.566 0-15.406-8.566-15.406-17.111v-599.13c0-8.566 8.566-17.111 17.111-17.111h136.949c8.566 0 17.111 6.84 17.111 15.406v600.835c0 8.566-8.566 17.111-17.111 17.111zM999.848-57.039h-171.172c-17.111 0-34.242 17.111-34.242 34.242v368.1c0 30.812-6.84 54.784-23.972 70.21-18.214 17.996-43.261 29.112-70.904 29.112-0.348 0-0.696-0.002-1.044-0.005h0.053c-53.059 0-94.141-44.513-94.141-101.002v-369.785c0-18.836-18.836-30.812-34.242-30.812h-188.283c-15.406 0-34.242 12.036-34.242 30.812v638.508c0 18.836 18.836 32.517 34.242 32.517h171.172c17.111 0 34.242-17.111 34.242-34.242v-23.972c41.083 46.138 104.412 75.325 171.172 75.325h35.887c135.224 0 239.656-106.137 239.656-243.066v-441.64c0.060-17.111-16.991-34.303-34.182-34.303zM830.482-22.737h167.761l1.705 1.705v439.935c0 116.348-89.006 208.844-203.709 208.844h-35.967c-63.329 0-123.248-30.812-157.491-78.735l-47.843-47.843v107.782l-1.705 1.705h-169.627v-633.393h188.303v366.315c0 75.325 56.489 133.519 128.384 135.224 0.213 0.001 0.464 0.002 0.716 0.002 37.152 0 70.79-15.048 95.151-39.381l-0.001 0.001c22.287-22.226 32.517-53.139 32.517-94.121l1.805-368.040z" />
<glyph unicode="&#xe919;" glyph-name="linkedin-logo" d="M123.075 959.121c-68.014 0-123.065-55.15-123.076-123.010 0-67.926 55.051-123.065 123.087-123.065 67.849 0 122.977 55.139 122.977 123.065 0 67.871-55.139 123.010-122.988 123.010zM16.923 619.701h212.227v-682.822h-212.227v682.822zM769.431 636.68c-103.236 0-172.46-56.603-200.795-110.279h-2.839v93.3h-203.557v-682.811h212.040v337.791c0 89.053 16.957 175.31 127.367 175.31 108.826 0 110.279-101.85 110.279-181.021v-332.069h212.073v374.521c0 183.838-39.668 325.258-254.571 325.258z" />
<glyph unicode="&#xe91a;" glyph-name="magnifying-glass" horiz-adv-x="885" d="M876.915 50.797l-215.115 215.113c57.702 66.338 92.636 152.899 92.636 247.498 0 208.243-169.381 377.433-377.433 377.433-208.243 0-377.433-169.381-377.433-377.433s169.381-377.433 377.433-377.433c94.599 0 181.16 34.934 247.498 92.636l215.113-215.115c5.108-5.098 11.98-7.849 18.651-7.849s13.543 2.549 18.651 7.849c10.206 10.209 10.206 27.093 0 37.302v0zM52.366 513.408c0 179.004 145.632 324.435 324.444 324.435 178.994 0 324.435-145.632 324.435-324.435s-145.441-324.636-324.435-324.636c-178.812 0-324.444 145.632-324.444 324.636v0z" />
<glyph unicode="&#xe91b;" glyph-name="menu" d="M984 408h-944c-22.092 0-40 17.908-40 40s17.908 40 40 40h944c22.092 0 40-17.908 40-40s-17.908-40-40-40zM984 728h-944c-22.092 0-40 17.908-40 40s17.908 40 40 40h944c22.092 0 40-17.908 40-40s-17.908-40-40-40zM984 88h-944c-22.092 0-40 17.908-40 40s17.908 40 40 40h944c22.092 0 40-17.908 40-40s-17.908-40-40-40z" />
<glyph unicode="&#xe91c;" glyph-name="monotype" d="M351.993 0.017h-191.997c-8.836 0-15.999 7.163-15.999 15.999v0 127.998c0 8.836 7.163 15.999 15.999 15.999v0h191.997c8.836 0 15.999-7.163 15.999-15.999v0-127.998c0-8.836-7.163-15.999-15.999-15.999v0zM175.995 32.017h159.997v95.999h-159.997zM303.993 128.015h-95.999c-8.836 0-15.999 7.163-15.999 15.999v0 799.988c0 8.836 7.163 15.999 15.999 15.999v0h95.999c8.836 0 15.999-7.163 15.999-15.999v0-799.988c0-8.836-7.163-15.999-15.999-15.999v0zM223.994 160.014h63.999v767.988h-63.999zM1007.982 720.005h-863.986c-8.836 0-15.999 7.163-15.999 15.999s7.163 15.999 15.999 15.999v0h847.987v32h-959.985v-32h47.999c8.836 0 15.999-7.163 15.999-15.999s-7.163-15.999-15.999-15.999v0h-63.999c-8.836 0-15.999 7.163-15.999 15.999v0 63.999c0 8.836 7.163 15.999 15.999 15.999v0h991.984c8.836 0 15.999-7.163 15.999-15.999v0-63.999c0-8.836-7.163-15.999-15.999-15.999v0zM143.996 656.007h-63.999c-8.836 0-15.999 7.163-15.999 15.999v0 127.998c0 8.836 7.163 15.999 15.999 15.999v0h63.999c8.836 0 15.999-7.163 15.999-15.999v0-127.998c0-8.836-7.163-15.999-15.999-15.999v0zM95.997 688.006h32v95.999h-32zM15.998 784.005c-8.813 0.030-15.947 7.182-15.947 15.999 0 5.193 2.474 9.808 6.308 12.732l0.039 0.028 191.997 143.998c2.64 1.998 5.98 3.199 9.599 3.199 8.836 0 15.999-7.163 15.999-15.999 0-5.216-2.497-9.849-6.36-12.771l-0.040-0.029-191.997-143.998c-2.612-1.973-5.914-3.16-9.494-3.16-0.037 0-0.074 0-0.111 0h0.006zM1007.982 784.005c-0.021 0-0.046 0-0.071 0-1.115 0-2.203 0.123-3.247 0.358l0.098-0.019-703.989 143.998c-7.164 1.69-12.414 8.028-12.414 15.593 0 8.836 7.163 15.999 15.999 15.999 1.002 0 1.982-0.092 2.933-0.268l-0.098 0.015 703.989-143.998c7.364-1.534 12.816-7.97 12.816-15.68 0-8.836-7.163-15.999-15.999-15.999-0.006 0-0.011 0-0.017 0h0.001zM863.985 560.008c-84.778 0-143.998 72.359-143.998 175.997 0 8.836 7.163 15.999 15.999 15.999s15.999-7.163 15.999-15.999v0c0-84.778 45.999-143.998 111.998-143.998 70.579 0 127.998 64.599 127.998 143.998 0 8.836 7.163 15.999 15.999 15.999s15.999-7.163 15.999-15.999v0c0-97.078-71.779-175.997-159.997-175.997zM735.986 400.011c-8.836 0-15.999 7.163-15.999 15.999v0 319.995c0 8.836 7.163 15.999 15.999 15.999s15.999-7.163 15.999-15.999v0-319.995c0-8.836-7.163-15.999-15.999-15.999v0zM767.986 336.012h-63.999c-7.457 0.001-13.722 5.104-15.495 12.009l-0.024 0.11-15.999 63.999c-0.303 1.165-0.478 2.502-0.478 3.88 0 8.835 7.162 15.998 15.997 15.999h95.999c8.835-0.001 15.997-7.164 15.997-15.999 0-1.378-0.175-2.716-0.502-3.991l0.024 0.11-15.999-63.999c-1.797-7.015-8.062-12.118-15.519-12.12v0zM716.486 368.011h38.999l8 32h-54.999zM761.666 243.353c-0.004 0-0.009 0-0.014 0-7.913 0-15.263 2.405-21.361 6.526l0.136-0.086-13.32 8.88c-4.318 2.91-7.12 7.783-7.12 13.31 0 8.836 7.164 16 16 16 3.31 0 6.385-1.005 8.937-2.727l-0.057 0.036 13.32-8.88c0.983-0.665 2.196-1.062 3.5-1.062 3.48 0 6.3 2.821 6.3 6.3 0 0.001 0 0.001 0 0.002v0c0 3.491-2.829 6.32-6.32 6.32v0h-9.68c-17.673 0-32 14.327-32 32v0 32.040c0 8.836 7.163 15.999 15.999 15.999s15.999-7.163 15.999-15.999v0-32h9.68c21.163 0 38.319-17.156 38.319-38.319s-17.156-38.319-38.319-38.319v0zM959.983-15.983h-447.993c-17.673 0-32 14.327-32 32v0 223.996c0 17.673 14.327 32 32 32v0h447.993c17.673 0 32-14.327 32-32v0-223.996c0-17.673-14.327-32-32-32v0zM511.99 240.013v-223.996h447.993v223.996zM895.983 48.016c-8.836 0-15.999 7.163-15.999 15.999v0 127.998c0 8.836 7.163 15.999 15.999 15.999s15.999-7.163 15.999-15.999v0-127.998c0-8.836-7.163-15.999-15.999-15.999v0zM815.985 48.016c-8.836 0-15.999 7.163-15.999 15.999v0 127.998c0 8.836 7.163 15.999 15.999 15.999s15.999-7.163 15.999-15.999v0-127.998c0-8.836-7.163-15.999-15.999-15.999v0zM735.986 48.016c-8.836 0-15.999 7.163-15.999 15.999v0 127.998c0 8.836 7.163 15.999 15.999 15.999s15.999-7.163 15.999-15.999v0-127.998c0-8.836-7.163-15.999-15.999-15.999v0zM655.988 48.016c-8.836 0-15.999 7.163-15.999 15.999v0 127.998c0 8.836 7.163 15.999 15.999 15.999s15.999-7.163 15.999-15.999v0-127.998c0-8.836-7.163-15.999-15.999-15.999v0zM575.989 48.016c-8.836 0-15.999 7.163-15.999 15.999v0 127.998c0 8.836 7.163 15.999 15.999 15.999s15.999-7.163 15.999-15.999v0-127.998c0-8.836-7.163-15.999-15.999-15.999v0zM415.991-63.982h-319.995c-8.836 0-15.999 7.163-15.999 15.999v0 47.999c0 17.673 14.327 32 32 32v0h287.996c17.673 0 32-14.327 32-32v0-47.999c0-8.836-7.163-15.999-15.999-15.999v0zM111.996-31.982h287.996v32h-287.996zM303.993 176.015c-3.302 0.001-6.37 1.002-8.917 2.717l0.057-0.036-95.999 63.999c-4.318 2.91-7.12 7.783-7.12 13.31 0 8.836 7.164 16 16 16 3.31 0 6.385-1.005 8.937-2.727l-0.057 0.036 95.999-63.999c4.31-2.911 7.106-7.779 7.106-13.3 0-8.836-7.163-15.999-15.999-15.999-0.002 0-0.004 0-0.006 0v0zM207.995 288.013c-0.011 0-0.023 0-0.036 0-8.836 0-15.999 7.163-15.999 15.999 0 5.534 2.809 10.411 7.079 13.284l0.057 0.036 95.999 63.999c2.495 1.686 5.57 2.69 8.88 2.69 8.836 0 16-7.164 16-16 0-5.527-2.802-10.4-7.064-13.274l-0.057-0.036-95.999-63.999c-2.489-1.685-5.556-2.692-8.857-2.7h-0.002zM303.993 400.011c-3.302 0.001-6.37 1.002-8.917 2.717l0.057-0.036-95.999 63.999c-4.318 2.91-7.12 7.783-7.12 13.31 0 8.836 7.164 16 16 16 3.31 0 6.385-1.005 8.937-2.727l-0.057 0.036 95.999-63.999c4.31-2.911 7.106-7.779 7.106-13.3 0-8.836-7.163-15.999-15.999-15.999-0.002 0-0.004 0-0.006 0v0zM207.995 512.009c-0.011 0-0.023 0-0.036 0-8.836 0-15.999 7.163-15.999 15.999 0 5.534 2.809 10.411 7.079 13.284l0.057 0.036 95.999 63.999c2.495 1.686 5.57 2.69 8.88 2.69 8.836 0 16-7.164 16-16 0-5.527-2.802-10.4-7.064-13.274l-0.057-0.036-95.999-63.999c-2.489-1.685-5.556-2.692-8.857-2.7h-0.002zM303.993 624.007c-3.302 0.001-6.37 1.002-8.917 2.717l0.057-0.036-95.999 63.999c-4.318 2.91-7.12 7.783-7.12 13.31 0 8.836 7.164 16 16 16 3.31 0 6.385-1.005 8.937-2.727l-0.057 0.036 95.999-63.999c4.31-2.911 7.106-7.779 7.106-13.3 0-8.836-7.163-15.999-15.999-15.999-0.002 0-0.004 0-0.006 0v0z" />
<glyph unicode="&#xe91d;" glyph-name="own-production" horiz-adv-x="1150" d="M1135.632-63.71h-1120.813c-8.004 0-14.493 6.488-14.493 14.493v0 338.265c0 0.008 0 0.019 0 0.029 0 5.626 3.205 10.503 7.89 12.905l0.082 0.038 280.221 139.712c1.899 0.977 4.144 1.55 6.522 1.55 8.004 0 14.493-6.488 14.493-14.493 0-0.010 0-0.020 0-0.030v0.002-116.306l259.206 129.277c1.88 0.954 4.1 1.514 6.449 1.514 8.001 0 14.489-6.484 14.493-14.485v0-116.306l72.465 36.232v355.874c0 8.004 6.488 14.493 14.493 14.493v0h52.609c8.004 0 14.493-6.488 14.493-14.493v0-315.439l68.189 34.349 12.029 521.747c0 8.004 6.488 14.493 14.493 14.493v0h126.378c8.004 0 14.493-6.488 14.493-14.493v0l13.189-571.965 136.669 68.189c1.899 0.977 4.144 1.55 6.522 1.55 8.004 0 14.493-6.488 14.493-14.493 0-0.010 0-0.020 0-0.030v0.002-478.268c0-8.004-6.488-14.493-14.493-14.493v0zM29.311-34.725h1091.828v440.079l-259.279-129.35c-1.917-0.96-4.177-1.523-6.568-1.523-0.060 0-0.12 0-0.18 0.001h0.009c-2.914 0.019-5.637 0.825-7.971 2.214l0.073-0.040c-4.154 2.594-6.878 7.137-6.884 12.318v115.944l-157.249-78.48-101.016-50.725c-1.899-0.977-4.144-1.55-6.522-1.55-8.004 0-14.493 6.488-14.493 14.493 0 0.010 0 0.020 0 0.030v-0.002 116.668l-259.569-129.35c-1.88-0.954-4.1-1.514-6.449-1.514-8.001 0-14.489 6.484-14.493 14.485v0 116.378l-251.236-125.292zM855.41 443.544c8.004 0 14.493-6.488 14.493-14.493v0-115.943l94.205 46.812-13.478 570.806h-98.044l-11.666-492.761 7.247 3.623c1.885 0.961 4.112 1.524 6.47 1.524 0.095 0 0.189-0.001 0.284-0.003h-0.014zM690.842 689.996v-327.106l23.624 11.739v315.366zM616.783 37.016h-55.146c-8.004 0-14.493 6.488-14.493 14.493v0 82.103c0 8.004 6.488 14.493 14.493 14.493v0h55.146c8.004 0 14.493-6.488 14.493-14.493v0-82.031c0-8.004-6.488-14.493-14.493-14.493v0zM576.13 66.001h26.16v53.117h-26.16zM499.608 37.016h-55.073c-8.004 0-14.493 6.488-14.493 14.493v0 82.103c0 8.004 6.488 14.493 14.493 14.493v0h55.146c8.004 0 14.493-6.488 14.493-14.493v0-82.031c0-8.004-6.488-14.493-14.493-14.493v0zM459.028 66.001h26.16v53.117h-26.16zM382.505 37.016h-55.073c-8.004 0-14.493 6.488-14.493 14.493v0 82.103c0 8.004 6.488 14.493 14.493 14.493v0h55.073c8.004 0 14.493-6.488 14.493-14.493v0-82.031c0-8.004-6.488-14.493-14.493-14.493v0zM341.852 66.001h26.16v53.117h-26.16zM265.329 37.016h-54.856c-8.004 0-14.493 6.488-14.493 14.493v0 82.103c0 8.004 6.488 14.493 14.493 14.493v0h55.073c8.004 0 14.493-6.488 14.493-14.493v0-82.031c0-8.004-6.488-14.493-14.493-14.493v0zM224.749 66.001h26.087v53.117h-25.87zM148.226 37.016h-55.146c-8.004 0-14.493 6.488-14.493 14.493v0 82.103c0 8.004 6.488 14.493 14.493 14.493v0h55.073c8.004 0 14.493-6.488 14.493-14.493v0-82.031c0-8.004-6.488-14.493-14.493-14.493v0zM107.646 66.001h26.015v53.117h-26.087z" />
<glyph unicode="&#xe91e;" glyph-name="placeholder4" horiz-adv-x="828" d="M413.538 755.954c-0.031 0-0.068 0-0.105 0-118.303 0-214.206-95.903-214.206-214.206s95.903-214.206 214.206-214.206c118.266 0 214.147 95.844 214.206 214.096v0.006c-0.030 118.275-95.843 214.162-214.088 214.311h-0.014zM413.538 378.867c-89.899 0-162.776 72.877-162.776 162.776s72.877 162.776 162.776 162.776c89.899 0 162.776-72.877 162.776-162.776v0c-0.104-89.857-72.919-162.672-162.766-162.776h-0.010zM413.538 960c-4.818 0-9.846 0-14.664-0.209-206.56-7.123-377.296-167.594-396.989-373.106-1.211-11.937-1.901-25.796-1.901-39.817 0-27.594 2.674-54.564 7.778-80.664l-0.43 2.641c0.862-5.5 1.884-10.171 3.149-14.74l-0.216 0.914c6.998-30.905 16.506-57.995 28.678-83.572l-1.025 2.394c42.527-100.975 135.751-256.209 338.121-424.223 10.228-8.501 23.497-13.661 37.971-13.661s27.743 5.159 38.068 13.739l-0.097-0.079c202.16 167.804 295.385 323.247 337.807 423.175 11.095 23.334 20.603 50.635 27.126 79.076l0.527 2.731c1.257 5.028 2.095 9.218 2.619 13.093 4.796 23.576 7.542 50.674 7.542 78.414 0 0.051 0 0.102 0 0.154v-0.008c-0.314 228.137-186.029 413.748-414.062 413.748zM769.257 476.7c0-0.419-0.628-3.98-2.095-10.475-6.461-27.78-14.95-52.025-25.691-75.007l0.971 2.313c-40.432-95.529-129.257-243.221-323.457-404.321-1.419-1.157-3.243-1.864-5.233-1.885h-0.005c-1.99 0.053-3.806 0.754-5.256 1.9l0.019-0.014c-194.2 161.309-283.234 309.002-323.876 405.159-9.771 20.547-18.16 44.595-23.936 69.642l-0.47 2.423c-1.257 5.447-1.885 8.799-2.095 9.846 0 0.419-0.209 0.838-0.209 1.257-4.132 20.733-6.496 44.569-6.496 68.957 0 12.381 0.609 24.62 1.8 36.688l-0.122-1.527c17.283 179.954 166.651 320.524 347.548 326.809 205.617 7.018 375.306-157.957 375.306-362.213-0.077-24.647-2.514-48.676-7.095-71.935l0.391 2.384z" />
<glyph unicode="&#xe91f;" glyph-name="placeholder-filled-point" horiz-adv-x="885" d="M432.548 952.328c-207.849 0-376.963-169.114-376.963-376.963 0-54.245 11.107-106.027 32.958-153.919 94.25-206.212 274.982-423.99 328.14-485.807 3.944-4.65 9.771-7.311 15.862-7.311 6.143 0 11.933 2.658 15.916 7.311 53.119 61.817 233.851 279.542 328.101 485.807 21.902 47.892 33.010 99.674 33.010 153.919-0.051 207.849-169.166 376.963-377.029 376.963v0zM432.548 379.542c-107.964 0-195.823 87.858-195.823 195.823s87.858 195.823 195.823 195.823c107.979 0 195.837-87.858 195.837-195.823s-87.858-195.823-195.837-195.823v0z" />
<glyph unicode="&#xe920;" glyph-name="play-button" horiz-adv-x="885" d="M440.911 889.85c-244.381 0-442.5-198.111-442.5-442.5 0-244.379 198.119-442.5 442.5-442.5 244.379 0 442.5 198.122 442.5 442.5 0 244.39-198.122 442.5-442.5 442.5v0zM593.851 423.896l-221.253-138.28c-4.475-2.794-9.563-4.205-14.662-4.205-4.606 0-9.224 1.149-13.402 3.479-8.794 4.87-14.245 14.12-14.245 24.18v276.561c0 10.060 5.451 19.312 14.245 24.191 8.787 4.903 19.539 4.598 28.064-0.735l221.253-138.28c8.076-5.065 12.998-13.919 12.998-23.456 0-9.528-4.922-18.389-12.998-23.454v0z" />
<glyph unicode="&#xe921;" glyph-name="repairs" horiz-adv-x="1017" d="M927.54 83.62c0 29.238-23.702 52.94-52.94 52.94s-52.94-23.702-52.94-52.94c0-29.238 23.702-52.94 52.94-52.94v0c29.224 0.034 52.906 23.716 52.94 52.937v0.003zM853.020 83.62c0.034 11.881 9.674 21.5 21.56 21.5 11.907 0 21.56-9.653 21.56-21.56 0-11.9-9.641-21.549-21.539-21.56h-0.001c-11.921 0.011-21.58 9.678-21.58 21.6 0 0.007 0 0.014 0 0.021v-0.001zM1017.26 86.36c-0.897 39.908-18.503 75.534-46.071 100.286l-0.129 0.114-316 284.94 279.4 279.3c2.077 0.609 3.868 1.344 5.562 2.238l-0.162-0.078 60.48 32c9.405 5.047 15.692 14.812 15.692 26.045 0 8.117-3.283 15.467-8.593 20.796l0.001-0.001-68.12 68c-5.33 5.321-12.688 8.612-20.815 8.612-11.233 0-20.998-6.287-25.968-15.535l-0.077-0.157-32-60.48c-0.831-1.544-1.579-3.347-2.145-5.229l-0.055-0.211-131.76-131.8c-2.73-2.821-4.413-6.671-4.413-10.913 0-8.671 7.029-15.7 15.7-15.7 4.242 0 8.092 1.683 10.917 4.417l120.976 120.996 31.7-31.7-309.38-309.4-31.72 31.7 135.040 135.040c2.954 2.858 4.787 6.859 4.787 11.287 0 8.671-7.029 15.7-15.7 15.7-4.428 0-8.429-1.834-11.283-4.783l-98.004-98.004-106.62 96.16c8.454 23.559 13.34 50.74 13.34 79.063 0 133.079-107.881 240.96-240.96 240.96-31.070 0-60.766-5.88-88.036-16.589l1.636 0.566c-5.929-2.333-10.049-8.009-10.049-14.648 0-4.321 1.745-8.234 4.57-11.073l123.199-123.179c3.488-3.492 5.646-8.314 5.646-13.64s-2.157-10.148-5.646-13.64v0l-80-80c-3.492-3.488-8.314-5.646-13.64-5.646s-10.148 2.157-13.64 5.646v0l-123.2 123.18c-2.838 2.824-6.751 4.569-11.072 4.569-6.638 0-12.315-4.12-14.611-9.943l-0.037-0.106c-10.122-25.608-15.99-55.273-15.99-86.308 0-133.056 107.864-240.92 240.92-240.92 26.516 0 52.031 4.284 75.892 12.197l-1.701-0.489 82.46-90.16c-14.316-27.639-42.7-46.201-75.42-46.201-11.083 0-21.669 2.13-31.371 6.002l0.571-0.201c-1.684 0.674-3.637 1.065-5.68 1.065-4.336 0-8.261-1.76-11.1-4.605v0l-192.14-192.18c-23.409-24.011-37.848-56.863-37.848-93.088 0-73.675 59.725-133.4 133.4-133.4 36.225 0 69.077 14.439 93.116 37.875l-0.028-0.027 192.12 192.12c2.834 2.84 4.587 6.761 4.587 11.090 0 2.047-0.392 4.003-1.104 5.796l0.037-0.106c-3.659 9.126-5.781 19.706-5.781 30.781 0 46.856 37.984 84.84 84.84 84.84 11.075 0 21.654-2.122 31.354-5.982l-0.573 0.201c1.684-0.674 3.637-1.065 5.68-1.065 4.336 0 8.261 1.76 11.1 4.605v0l36.24 36.24c10.452 10.455 16.917 24.898 16.917 40.85s-6.465 30.395-16.917 40.85l-15.42 15.42 18.76 18.76 317.080-286.020c22.249-19.985 36.18-48.847 36.18-80.963 0-60.022-48.658-108.68-108.68-108.68-31.862 0-60.522 13.711-80.401 35.555l-0.079 0.088-235.74 257.78c-2.882 3.135-7.002 5.092-11.58 5.092-8.678 0-15.712-7.035-15.712-15.712 0-4.1 1.57-7.833 4.143-10.631l-0.010 0.011 235.78-257.76c24.928-27.389 60.476-44.737 100.084-45.498l0.136-0.002h3.24c0.014 0 0.031 0 0.048 0 77.32 0 140 62.68 140 140 0 1.287-0.017 2.57-0.052 3.848l0.004-0.188zM331.26 518.72c-2.881 3.142-7.004 5.105-11.586 5.105-1.966 0-3.847-0.361-5.582-1.021l0.108 0.036c-21.787-8.392-46.994-13.254-73.336-13.254-115.715 0-209.52 93.805-209.52 209.52 0 18.278 2.34 36.009 6.738 52.91l-0.322-1.456 104.96-104.96c9.171-9.168 21.838-14.838 35.83-14.838s26.659 5.67 35.83 14.838l80 80c9.168 9.171 14.838 21.838 14.838 35.83s-5.67 26.659-14.838 35.83l-104.96 104.98c15.427 4.065 33.137 6.4 51.393 6.4 115.737 0 209.56-93.823 209.56-209.56 0-28.002-5.492-54.721-15.458-79.14l0.505 1.4c-0.718-1.733-1.135-3.746-1.135-5.856 0-4.593 1.975-8.725 5.122-11.593l0.012-0.011 113.36-102.24-14.78-14.86-15.42 15.42c-10.455 10.452-24.898 16.917-40.85 16.917s-30.395-6.465-40.85-16.917l-36.18-36.2c-2.834-2.84-4.587-6.761-4.587-11.090 0-2.047 0.392-4.003 1.104-5.796l-0.037 0.106c3.618-9.075 5.717-19.591 5.717-30.598 0-0.88-0.013-1.757-0.040-2.63l0.003 0.128zM607.26 355.76l-29.26-29.36c-9.647 2.885-20.732 4.546-32.204 4.546-32.102 0-61.167-13.002-82.217-34.027l0.001 0.001c-21.025-21.046-34.029-50.109-34.029-82.21 0-11.475 1.662-22.562 4.757-33.033l-0.209 0.823-185.24-185.24c-18.46-18.46-43.961-29.877-72.13-29.877-56.337 0-102.007 45.67-102.007 102.007 0 28.169 11.418 53.67 29.877 72.13l185.24 185.24c9.658-2.895 20.755-4.562 32.242-4.562 64.187 0 116.22 52.033 116.22 116.22 0 11.487-1.666 22.584-4.771 33.064l0.209-0.822 29.4 29.34c4.779 4.768 11.375 7.717 18.66 7.717s13.881-2.948 18.66-7.717v0l106.94-106.94c4.762-4.778 7.707-11.37 7.707-18.65s-2.944-13.872-7.707-18.651l0.001 0.001zM918.98 876l64.4-64.4-56.9-30-37.52 37.5zM321.3 267.5c-2.841 2.84-6.765 4.597-11.1 4.597s-8.259-1.757-11.1-4.597l-148.62-148.64c-2.73-2.821-4.413-6.671-4.413-10.913 0-8.671 7.029-15.7 15.7-15.7 4.242 0 8.092 1.683 10.917 4.417l148.636 148.636c2.834 2.84 4.587 6.76 4.587 11.090 0 4.34-1.761 8.268-4.607 11.11v0zM354 212.58l-148.6-148.58c-2.73-2.821-4.413-6.671-4.413-10.913 0-8.671 7.029-15.7 15.7-15.7 4.242 0 8.092 1.683 10.917 4.417l148.636 148.636c2.73 2.821 4.413 6.671 4.413 10.913 0 8.671-7.029 15.7-15.7 15.7-4.242 0-8.092-1.683-10.917-4.417l0.004 0.004z" />
<glyph unicode="&#xe922;" glyph-name="right" horiz-adv-x="554" d="M0 917.953l42.047 42.047 512.372-512-512.372-512-42.047 42.047 469.953 470.326z" />
<glyph unicode="&#xe923;" glyph-name="search" d="M1014.918-11.778l-248.848 248.848c66.565 75.998 107.168 176.192 107.168 285.869 0 0.155 0 0.311 0 0.466v-0.024c0 240.788-195.945 436.619-436.619 436.619s-436.619-195.831-436.619-436.619 195.831-436.619 436.619-436.619c0.131 0 0.287 0 0.442 0 109.678 0 209.872 40.603 286.371 107.598l-0.501-0.43 248.848-248.848c5.523-5.539 13.135-8.993 21.553-9.082h0.017c0.027 0 0.058 0 0.090 0 8.422 0 16.033 3.478 21.473 9.075l0.007 0.007c5.471 5.542 8.851 13.161 8.851 21.57s-3.379 16.027-8.854 21.573l0.003-0.003zM61.077 523.381c0 207.184 168.472 375.315 375.315 375.315s375.315-168.585 375.315-375.315-168.245-375.542-375.315-375.542-375.315 168.472-375.315 375.542z" />
<glyph unicode="&#xe924;" glyph-name="search-engine-optimization" d="M748.35 619.744c0-109.844-81.944-203.858-190.608-218.682l-13.968-1.908v-125.050h-34.464v125.298l-13.762 2.058c-107.56 16.102-188.67 109.944-188.67 218.284 0 121.714 99.022 220.736 220.736 220.736v32.302c-139.526 0-253.038-113.512-253.038-253.038 0-60.936 22.174-119.856 62.438-165.91 36.674-41.948 85.968-70.678 139.994-81.868v-97.862h-29.678v-312.26h156.736v312.26h-27.988v97.26c54.638 10.622 104.492 39.16 141.592 81.33 40.616 46.168 62.984 105.494 62.984 167.050h-32.304zM571.76-5.854h-92.13v247.654h92.13v-247.654zM416.174 662.542l30.432-10.834c10.794 30.31 38.46 51.984 70.492 55.214l-3.244 32.14c-44.382-4.478-82.726-34.512-97.68-76.52zM640.424 576.44l-30.432 10.834c-12.116-34.032-44.548-56.346-80.582-55.614l-0.684-32.294c0.834-0.020 1.66-0.028 2.492-0.028 49.012 0 92.696 30.724 109.206 77.102zM365.022 617.59c0 89.058 72.456 161.514 161.514 161.514v32.302c-106.87 0-193.818-86.946-193.818-193.818s86.946-193.818 193.818-193.818 193.818 86.946 193.818 193.818h-32.302c0-89.058-72.456-161.514-161.514-161.514s-161.516 72.458-161.516 161.516zM261.654-64h-96.91v56.738c-4.824 1.71-9.562 3.678-14.198 5.902l-40.132-40.136-68.526 68.526 40.138 40.136c-2.224 4.634-4.192 9.374-5.902 14.198h-56.742v96.908h56.738c1.71 4.824 3.678 9.562 5.902 14.198l-40.138 40.134 68.526 68.526 40.136-40.138c4.634 2.224 9.374 4.192 14.198 5.902v56.742h96.908v-56.738c4.824-1.71 9.562-3.678 14.198-5.902l40.136 40.138 68.526-68.526-40.138-40.136c2.224-4.634 4.192-9.374 5.902-14.198h56.738v-96.908h-56.738c-1.71-4.824-3.678-9.562-5.902-14.198l40.138-40.136-68.526-68.526-40.136 40.138c-4.634-2.224-9.374-4.192-14.198-5.902l0.002-56.742zM197.048-31.698h32.302v48.896l12.126 3.12c10.156 2.612 19.952 6.684 29.122 12.102l10.782 6.372 34.602-34.608 22.842 22.842-34.608 34.602 6.372 10.782c5.42 9.172 9.49 18.968 12.102 29.122l3.12 12.126h48.898v32.302h-48.896l-3.12 12.126c-2.612 10.156-6.684 19.952-12.102 29.122l-6.372 10.782 34.608 34.602-22.842 22.842-34.602-34.608-10.782 6.372c-9.172 5.42-18.968 9.49-29.122 12.102l-12.126 3.12v48.9h-32.302v-48.896l-12.126-3.12c-10.156-2.612-19.952-6.684-29.122-12.102l-10.782-6.372-34.604 34.618-22.842-22.842 34.608-34.602-6.372-10.782c-5.42-9.172-9.49-18.968-12.102-29.122l-3.124-12.128h-48.896v-32.302h48.892l3.12-12.126c2.612-10.156 6.684-19.952 12.102-29.122l6.372-10.782-34.608-34.602 22.842-22.842 34.602 34.608 10.782-6.372c9.172-5.42 18.968-9.49 29.122-12.102l12.126-3.12v-48.898h0.008zM213.198 49.060c-44.53 0-80.758 36.226-80.758 80.758 0 44.53 36.226 80.758 80.758 80.758s80.758-36.226 80.758-80.758c0-44.532-36.226-80.758-80.758-80.758zM213.198 178.272c-26.716 0-48.454-21.738-48.454-48.454s21.738-48.454 48.454-48.454 48.454 21.738 48.454 48.454c0.002 26.716-21.736 48.454-48.454 48.454zM757.648 647.74h-83.206v45.734c-2.374 0.898-4.718 1.872-7.036 2.924l-32.348-32.348-58.832 58.832 32.348 32.348c-1.054 2.316-2.026 4.662-2.924 7.036h-45.734v83.206h45.734c0.898 2.374 1.872 4.718 2.924 7.036l-32.348 32.348 58.832 58.832 32.348-32.348c2.316 1.054 4.662 2.026 7.036 2.924v45.736h83.206v-45.734c2.374-0.898 4.718-1.872 7.036-2.924l32.348 32.348 58.832-58.832-32.348-32.348c1.054-2.316 2.026-4.662 2.924-7.036h45.736v-83.206h-45.734c-0.898-2.374-1.872-4.718-2.924-7.036l32.348-32.348-58.832-58.832-32.348 32.348c-2.316-1.054-4.662-2.026-7.036-2.924v-45.736h-0.002zM706.748 680.042h18.6v37.754l12.126 3.12c7.688 1.98 15.112 5.062 22.056 9.168l10.782 6.37 26.718-26.718 13.15 13.15-26.718 26.718 6.37 10.782c4.104 6.948 7.188 14.368 9.168 22.056l3.12 12.126h37.754v18.6h-37.754l-3.12 12.126c-1.98 7.688-5.062 15.112-9.168 22.056l-6.37 10.782 26.718 26.718-13.15 13.15-26.718-26.718-10.782 6.37c-6.948 4.104-14.368 7.188-22.056 9.168l-12.126 3.12v37.756h-18.6v-37.754l-12.126-3.12c-7.688-1.98-15.112-5.062-22.056-9.168l-10.782-6.37-26.718 26.718-13.15-13.15 26.718-26.718-6.37-10.782c-4.104-6.948-7.188-14.368-9.168-22.056l-3.12-12.126h-37.756v-18.6h37.754l3.12-12.126c1.98-7.688 5.062-15.112 9.168-22.056l6.37-10.782-26.718-26.718 13.15-13.15 26.718 26.718 10.782-6.37c6.948-4.104 14.368-7.188 22.056-9.168l12.126-3.12v-37.756h0.002zM716.046 750.032c-29.686 0-53.838 24.152-53.838 53.838s24.152 53.838 53.838 53.838c29.686 0 53.838-24.152 53.838-53.838s-24.152-53.838-53.838-53.838zM716.046 825.404c-11.874 0-21.536-9.66-21.536-21.536 0-11.874 9.66-21.536 21.536-21.536 11.874 0 21.536 9.66 21.536 21.536s-9.662 21.536-21.536 21.536zM1004.618 588.518h-32.302v32.302h32.302v-32.302zM940.012 588.518h-32.302v32.302h32.302v-32.302zM875.406 588.518h-32.302v32.302h32.302v-32.302zM216.43 588.518h-32.304v32.302h32.302v-32.302zM151.824 588.518h-32.304v32.302h32.302v-32.302zM87.218 588.518h-32.302v32.302h32.302v-32.302z" />
<glyph unicode="&#xe925;" glyph-name="serious-experience" horiz-adv-x="1224" d="M1129.462-64h-1035.125c-52.080 0.052-94.284 42.257-94.336 94.331v643.625c0.157 52 42.321 94.1 94.331 94.152h266.648v109.14c0 45.702 37.049 82.751 82.751 82.751v0h336.981c45.702 0 82.751-37.049 82.751-82.751v0-109.14h266.643c51.803-0.416 93.642-42.482 93.693-94.332v-643.625c-0.052-52.080-42.257-94.284-94.331-94.336h-0.005zM36.778 537.049v-506.713c0.052-31.767 25.791-57.506 57.553-57.558h1035.13c31.767 0.052 57.506 25.791 57.558 57.553v507.27l-490.347-175.249v-108.864c0-10.156-8.233-18.389-18.389-18.389v0h-132.77c-10.156 0-18.389 8.233-18.389 18.389v0 108.864zM611.899 271.878h47.996v77.786l-41.743-14.895c-1.834-0.673-3.952-1.063-6.16-1.063s-4.326 0.389-6.288 1.103l0.128-0.041-41.927 14.895v-77.786zM36.778 576.126l575.121-204.579 575.121 205.039v97.187c-0.052 31.767-25.791 57.506-57.553 57.558h-1035.13c-31.788 0-57.558-25.77-57.558-57.558v0zM397.482 768.109h428.835v109.14c0 25.39-20.583 45.973-45.973 45.973v0h-337.349c-25.39 0-45.973-20.583-45.973-45.973v0z" />
<glyph unicode="&#xe926;" glyph-name="service" horiz-adv-x="683" d="M478.175 4.6h-272.871c-10.232 0-17.047 6.815-17.047 17.047v204.663c0 10.232 6.815 17.047 17.047 17.047h272.871c10.232 0 17.047-6.815 17.047-17.047v-204.643c0-10.232-6.815-17.067-17.047-17.067zM222.371 38.714h238.737v170.529h-238.737zM367.32-63.607h-51.161c-22.163 0-40.929 10.232-54.578 27.279l-35.813 47.743c-3.417 5.116-5.116 11.991-1.699 17.047s8.533 10.232 15.348 10.232h204.643q10.232 0 15.348-10.232c3.417-5.116 1.699-11.991-1.699-17.047l-35.773-47.743c-11.991-17.047-32.455-27.279-54.618-27.279zM273.532 4.6l15.348-20.464c6.423-8.155 16.214-13.409 27.24-13.649l0.039-0.001h51.161c11.066 0.241 20.856 5.495 27.221 13.574l0.058 0.076 15.348 20.464zM324.693 141.036h-119.388c-10.232 0-17.047 6.815-17.047 17.047s6.815 17.047 17.047 17.047h119.368c10.232 0 17.047-6.815 17.047-17.047s-6.795-17.047-17.027-17.047zM478.175 72.828h-119.388c-10.232 0-17.047 6.815-17.047 17.047s6.815 17.047 17.047 17.047h119.368c10.232 0 17.047-6.815 17.047-17.047s-6.795-17.047-17.027-17.047zM478.175 141.036h-68.228c-10.232 0-17.047 6.815-17.047 17.047s6.815 17.047 17.047 17.047h68.208c10.232 0 17.047-6.815 17.047-17.047s-6.795-17.047-17.027-17.047zM273.532 72.828h-68.228c-10.232 0-17.047 6.815-17.047 17.047s6.815 17.047 17.047 17.047h68.208c10.232 0 17.047-6.815 17.047-17.047s-6.795-17.047-17.027-17.047zM239.418 328.632c-0.417-0.040-0.9-0.063-1.389-0.063-2.613 0-5.073 0.651-7.227 1.802l0.083-0.040c-4.862 2.907-8.067 8.144-8.067 14.129 0 2.286 0.468 4.465 1.313 6.442l-0.041-0.107 76.741 199.527h-61.413c-0.014 0-0.030 0-0.046 0-6.434 0-12.079 3.378-15.258 8.459l-0.044 0.076c-1.602 2.399-2.556 5.35-2.556 8.523s0.954 6.124 2.592 8.58l-0.036-0.057 119.368 221.69c3.223 5.155 8.868 8.533 15.302 8.533 0.016 0 0.033 0 0.049 0h102.319c0.014 0 0.030 0 0.046 0 6.434 0 12.079-3.378 15.258-8.459l0.044-0.076c1.602-2.399 2.556-5.35 2.556-8.523s-0.954-6.124-2.592-8.58l0.036 0.057-71.625-127.902h73.324q10.232 0 15.348-10.232c1.151-2.328 1.825-5.069 1.825-7.968 0-4.061-1.322-7.812-3.559-10.849l0.035 0.050-238.737-289.898c-3.438-3.176-8.053-5.123-13.122-5.123-0.186 0-0.371 0.003-0.555 0.008l0.027-0.001zM268.416 584.435h56.277c5.116 0 10.232-3.417 13.65-6.815 1.783-2.603 2.848-5.821 2.848-9.287 0-2.182-0.422-4.266-1.188-6.173l0.040 0.112-47.743-122.786 150.065 179.063h-66.509c-0.014 0-0.030 0-0.046 0-6.434 0-12.079 3.378-15.258 8.459l-0.044 0.076c-1.602 2.399-2.556 5.35-2.556 8.523s0.954 6.124 2.592 8.58l-0.036-0.057 71.625 127.902h-63.112zM478.175 209.243h-272.871c-0.21-0.009-0.456-0.015-0.702-0.015-8.132 0-14.899 5.845-16.328 13.562l-0.016 0.102c-10.232 45.965-37.511 93.788-80.158 134.717-66.535 63.837-107.878 153.488-107.878 252.795 0 13.678 0.784 27.172 2.31 40.441l-0.152-1.62c17.047 160.317 146.647 289.917 306.964 308.683 10.232 0 20.464 1.699 32.395 1.699s22.243-1.699 32.395-1.699c160.297-17.047 289.917-146.667 306.964-308.663v0c11.991-109.136-27.279-214.875-105.739-291.616-42.627-40.929-71.625-88.672-80.158-134.717-1.438-7.829-8.21-13.683-16.347-13.683-0.239 0-0.477 0.005-0.712 0.015l0.034-0.001zM218.954 243.357h245.572c13.65 49.462 44.346 97.205 86.973 139.893 71.625 68.208 105.739 163.714 95.507 262.618v0c-15.348 144.909-133.018 260.88-277.987 277.927-8.533 0-17.047 1.699-27.279 1.699s-18.766-1.699-27.279-1.699c-144.969-17.047-260.92-133.018-277.987-277.947-10.232-98.944 23.882-194.431 95.507-262.658 42.627-42.627 73.324-90.371 86.973-139.833z" />
<glyph unicode="&#xe927;" glyph-name="skype" horiz-adv-x="1017" d="M994.938 358.908c7.299 40.317 37.836 259.776-125.509 420.301-13.038 15.258-161.645 180.663-435.919 143.366-36.596 18.978-210.86 96.991-357.967-51.855-1.38-1.44-134.267-143.346-44.296-326.13-6.44-29.098-23.058-130.308 24.297-254.496 2.56-9.199 65.414-225.979 303.151-296.932 4.28-1.639 105.41-39.516 236.558-27.998 17.438-7.739 71.713-29.217 138.107-29.217 63.094 0 137.087 19.358 200.881 88.232 8.979 9.139 131.588 138.707 60.695 334.728zM904.546 53.377l-0.539-0.559c-123.269-133.388-288.512-51.315-295.533-47.775l-5.46 2.799-5.999-0.6c-123.508-12.359-222.399 24.458-224.839 25.297-216.64 64.654-275.874 266.715-277.034 270.555-50.636 132.747-21.998 237.277-21.818 238.258l2.3 7.999-3.839 7.38c-82.972 159.245 29.058 280.154 33.617 284.953 140.787 142.507 306.411 45.675 313.35 41.516l6.42-3.899 7.42 1.1c261.975 38.636 399.843-121.848 405.582-128.667l1.44-1.579c160.805-157.286 113.99-386.324 113.429-388.624l-1.28-5.999 2.16-5.739c66.594-176.123-44.336-291.253-49.356-296.412zM636.671 520.673l-1.78 0.48c-119.389 21.338-189.382 53.335-189.382 53.335v0c-10.399 6.6-25.998 16.938-27.078 28.797-0.98 10.779 8.68 22.438 13.779 27.237 115.989 59.194 167.545-13.279 169.744-16.438 32.597-48.216 65.994-74.633 99.050-78.472 28.938-3.34 46.216 11.838 47.715 13.239 23.998 20.999 35.997 45.576 36.137 73.013 0.1 53.215-47.456 95.851-49.095 97.271-139.127 129.787-355.747 55.335-364.545 52.175-175.404-58.835-138.906-223.599-138.527-225.259l0.7-2.3c51.995-143.647 270.655-162.325 279.974-163.065 104.51-8.259 108.95-58.234 109.13-61.034 3.759-52.595-88.612-68.233-101.651-70.134-91.332 4.999-112.709 40.596-112.749 40.596l-2.12 3.46c-47.695 63.114-66.273 84.992-107.030 85.992-33.857 0.68-53.995-12.779-64.854-24.438-27.297-29.417-23.778-72.833-23.298-77.692l0.46-2.739c40.277-168.164 261.496-166.664 269.035-166.165 12.918-0.8 25.297-1.16 37.257-1.16 276.634 0 295.653 201.081 295.772 202.801 11.939 123.069-110.329 191.502-176.644 210.501zM771.858 313.973c-0.64-7.359-18.518-180.203-290.652-163.784-1.8 0-195.361-1.619-229.059 132.648-0.26 5.48-0.559 29.997 12.439 43.996 7.319 7.879 17.739 11.479 33.277 11.119 18.939-0.48 26.878-5.999 73.993-68.353 6.879-11.779 39.876-56.335 148.766-61.835h1.679l1.699 0.2c54.575 6.199 145.466 37.337 139.986 113.509 0 3.639-3.080 89.332-147.426 100.731-2 0.16-199.721 16.918-243.577 134.428-2.739 13.559-22.178 130.328 111.77 175.344 2 0.7 201.741 69.473 323.050-43.635 0.36-0.32 35.496-32.316 35.436-66.374 0-15.178-7.199-28.857-22.338-42.136-3.335-1.938-7.339-3.081-11.61-3.081-1.231 0-2.44 0.095-3.619 0.278l0.131-0.017c-11.559 1.34-35.997 10.979-69.313 60.274-0.74 1.080-73.993 107.99-225.859 29.058l-3.56-2.34c-3.44-2.799-33.416-28.337-30.397-63.994 2-23.998 17.998-44.816 49.175-62.374 2.98-1.4 74.833-34.657 200.242-57.174 12.759-3.959 156.925-51.315 145.767-166.505z" />
<glyph unicode="&#xe928;" glyph-name="telephone" horiz-adv-x="885" d="M178.817 300.414c87.625-104.738 193.101-187.204 313.49-245.554 45.831-21.726 107.128-47.494 175.421-51.917 4.234-0.179 8.286-0.359 12.52-0.359 45.831 0 82.646 15.828 112.648 48.41 0.189 0.179 0.557 0.548 0.739 0.916 10.676 12.89 22.828 24.485 35.529 36.815 8.656 8.288 17.492 16.935 25.957 25.771 39.206 40.867 39.206 92.775-0.368 132.349l-110.635 110.635c-18.776 19.515-41.229 29.823-64.795 29.823-23.557 0-46.199-10.308-65.534-29.643l-65.89-65.89c-6.077 3.495-12.342 6.622-18.228 9.572-7.361 3.675-14.174 7.172-20.251 11.038-60.005 38.109-114.491 87.805-166.585 151.682-26.327 33.32-43.997 61.3-56.33 89.829 17.303 15.647 33.5 32.032 49.148 48.039 5.518 5.709 11.224 11.415 16.933 17.124 19.883 19.88 30.559 42.89 30.559 66.27 0 23.378-10.488 46.387-30.559 66.268l-54.855 54.855c-6.445 6.436-12.51 12.701-18.776 19.146-12.142 12.51-24.853 25.4-37.363 36.995-18.967 18.597-41.238 28.348-64.797 28.348-23.378 0-45.838-9.751-65.532-28.527l-68.85-68.85c-25.032-25.032-39.206-55.402-42.145-90.566-3.507-43.997 4.602-90.752 25.58-147.262 32.214-87.437 80.812-168.617 152.968-255.317v0zM45.182 699.13c2.202 24.482 11.594 44.912 29.266 62.584l68.481 68.481c10.667 10.299 22.453 15.637 33.866 15.637 11.227 0 22.642-5.338 33.132-16.008 12.331-11.415 23.935-23.378 36.447-36.077 6.263-6.445 12.699-12.89 19.144-19.515l54.855-54.855c11.415-11.415 17.301-23.010 17.301-34.425 0-11.413-5.886-23.010-17.301-34.422-5.709-5.709-11.415-11.597-17.115-17.303-17.121-17.303-33.139-33.688-50.81-49.335l-0.916-0.918c-15.281-15.279-12.89-29.823-9.204-40.87 0.179-0.548 0.368-0.916 0.548-1.464 14.174-34.057 33.868-66.459 64.616-105.117 55.223-68.104 113.387-120.934 177.443-161.615 7.92-5.149 16.388-9.204 24.305-13.258 7.361-3.677 14.174-7.172 20.251-11.038 0.727-0.368 1.284-0.736 2.023-1.104 6.075-3.129 11.963-4.602 17.848-4.602 14.733 0 24.305 9.383 27.432 12.51l68.84 68.85c10.679 10.679 22.273 16.385 33.688 16.385 13.994 0 25.4-8.654 32.581-16.385l111.003-110.814c22.085-22.094 21.905-46.019-0.557-69.397-7.729-8.288-15.828-16.197-24.485-24.485-12.879-12.51-26.316-25.4-38.467-39.942-21.169-22.821-46.387-33.5-78.972-33.5-3.127 0-6.443 0.179-9.572 0.368-60.373 3.866-116.521 27.423-158.677 47.485-114.491 55.412-214.995 134.013-298.387 233.782-68.661 82.655-114.859 159.592-145.421 242.059-18.955 50.621-26.137 91.302-23.189 128.306v0z" />
<glyph unicode="&#xe929;" glyph-name="up" horiz-adv-x="1891" d="M77.795-63.233l-77.647 77.647 945.506 945.506 945.506-945.506-77.647-77.647-868.546 867.859z" />
<glyph unicode="&#xe92a;" glyph-name="user" horiz-adv-x="857" d="M428.4 458.44c0.006 0 0.013 0 0.020 0 138.502 0 250.78 112.278 250.78 250.78s-112.278 250.78-250.78 250.78c-138.502 0-250.78-112.278-250.78-250.78v0c0.159-138.431 112.331-250.609 250.744-250.78h0.016zM428.4 909.22c110.457 0 200-89.543 200-200s-89.543-200-200-200c-110.457 0-200 89.543-200 200v0c0.125 110.407 89.593 199.875 199.988 200h0.012zM428.4 395.76c-236.22 0-428.4-192.18-428.4-428.42v-31.34h856.82v31.34c0 236.24-192.18 428.42-428.42 428.42zM47.4-8.94c16.6 195.58 181.2 349.62 381 349.62s364.32-154 381-349.62z" />
<glyph unicode="&#xe92b;" glyph-name="warning" d="M511.556 959.932c-137.11-2.448-266.206-57.87-363.473-156.027-97.713-99.049-150.241-228.59-148.015-364.808 2.448-137.11 56.313-264.648 151.8-359.243 94.151-93.039 218.574-143.787 351.454-143.787 3.115 0 6.010 0 9.125 0 137.107 2.45 266.204 57.872 363.471 156.030 97.934 99.049 150.241 228.59 148.015 364.808-2.448 137.11-56.313 264.648-151.8 359.243-95.484 94.819-225.693 146.902-360.576 143.785zM979.417 456.013c2.226-124.199-45.851-242.389-135.106-332.534-87.697-89.477-207.222-140.893-332.534-142.896-122.641-2.894-241.277 44.515-328.304 131.1-87.474 86.138-136.663 202.769-138.89 328.081-2.226 124.199 45.851 242.389 135.106 332.757 87.918 89.477 207.443 140.893 332.755 142.896 2.894 0 5.565 0 8.457 0 121.084 0 234.376-46.297 320.070-131.1 87.029-86.138 136.219-202.769 138.445-328.304zM512 358.968c12.243 0 22.259 10.016 22.259 22.259v356.128c0 12.243-10.016 22.259-22.259 22.259s-22.259-10.016-22.259-22.259v-356.128c0-12.464 10.016-22.259 22.259-22.259zM512 269.937h-0.891c-24.483-0.223-44.294-20.255-44.071-44.962 0.223-24.483 20.255-44.294 44.962-44.071h0.891c24.483 0.223 44.294 20.255 44.071 44.962-0.223 24.483-20.479 44.292-44.962 44.071z" />
<glyph unicode="&#xe92c;" glyph-name="youtube" horiz-adv-x="1333" d="M665.221-63.765c-13.353 0-338.274 4.46-440.74 13.353-4.439 1.462-9.548 2.306-14.855 2.306-1.040 0-2.073-0.032-3.097-0.096l0.14 0.007c-35.599 4.46-91.277 11.136-137.986 64.546-42.17 46.655-55.522 144.558-55.522 149.017 0 2.217-13.353 115.714-13.353 226.89v104.682c0 113.497 13.353 226.89 13.353 226.89 0 4.46 13.353 104.604 57.87 151.26 48.951 55.836 104.578 62.59 135.743 64.729h6.676c178.044 17.812 449.528 20.029 451.771 20.029 4.46 0 273.832-2.217 453.988-15.648h8.893c28.922-2.217 84.575-8.893 135.743-64.546 42.275-46.734 55.628-144.662 55.628-149.095v0c0-2.217 13.353-115.714 13.353-226.89v-104.604c0-113.497-13.353-226.89-13.353-226.89 0-4.46-13.353-104.604-57.87-151.26-48.951-55.628-104.604-62.303-135.743-64.546h-6.676c-180.233-20.133-451.745-20.133-453.962-20.133zM665.221 915.431c-2.217 0-271.511-2.217-449.528-15.648h-6.702c-26.705-2.217-68.979-6.676-109.037-51.194-26.705-31.165-42.275-102.387-44.518-126.876 0 0-13.353-111.28-13.353-222.534v-104.604c0-109.037 13.353-220.317 13.353-222.534 2.217-24.489 17.812-95.685 44.518-124.633 35.599-40.058 80.115-46.734 111.28-48.951 6.676 0 13.353-2.217 20.029-2.217 97.927-11.136 431.742-15.648 433.959-15.648s271.511 0 449.528 13.353h6.676c24.489 2.217 68.979 6.676 106.925 51.194 28.922 31.165 42.275 102.361 46.734 126.85 0 0 13.353 111.28 13.353 222.534v104.656c0 106.925-11.136 218.101-13.353 222.534-4.46 24.489-17.812 95.685-44.518 126.85-37.841 44.518-82.332 48.951-106.925 51.194h-8.945c-177.991 13.353-447.259 15.569-449.476 15.569zM509.423 167.582c-0.543-0.052-1.175-0.082-1.813-0.082-3.41 0-6.62 0.851-9.431 2.351l0.108-0.052c-6.727 4.205-11.136 11.572-11.136 19.969 0 0.021 0 0.042 0 0.063v-0.003 482.936c0 0.018 0 0.039 0 0.060 0 8.396 4.409 15.763 11.038 19.911l0.098 0.057c3.131 2.091 6.982 3.335 11.123 3.335s7.992-1.246 11.197-3.383l-0.074 0.046 422.823-247.023c6.783-4.195 11.234-11.592 11.234-20.029s-4.451-15.834-11.134-19.971l-0.1-0.058-422.797-235.887c-2.714-1.462-5.939-2.321-9.366-2.321-0.623 0-1.24 0.028-1.849 0.084l0.078-0.006zM531.669 634.923v-407.254l356.138 198.072z" />
</font>
</defs>
</svg>
